<?xml version="1.0" encoding="utf-8"?>
<!-- Generator: Adobe Illustrator 23.0.3, SVG Export Plug-In . SVG Version: 6.00 Build 0)  -->
<svg version="1.1" id="OBJECTS" xmlns="http://www.w3.org/2000/svg" xmlns:xlink="http://www.w3.org/1999/xlink" x="0px" y="0px"
	 viewBox="0 0 500 500" style="enable-background:new 0 0 500 500;" xml:space="preserve">
<style type="text/css">
	.st0{fill:none;stroke:#FFFFFF;stroke-width:2.1445;stroke-linecap:round;stroke-linejoin:round;stroke-miterlimit:10;}
	.st1{fill:#FFFFFF;stroke:#FFFFFF;stroke-miterlimit:10;}
</style>
<g>
	<g>
		<g>
			<path class="st0" d="M214.4,161.3c0,0-3.2-15.3,13.2-18.8c16.4-3.6,22.3-11.6,22.3-11.6"/>
			<path class="st0" d="M249.9,130.8"/>
			<path class="st0" d="M249.9,153.8c0,0-8.7-15,0-15"/>
			<path class="st0" d="M243.6,153.8c0,0-1.3-10.9-5.5-9.2C233.9,146.4,243.6,153.8,243.6,153.8z"/>
			<path class="st0" d="M241.8,132.4c0,0-32.8-62.5,8.1-62.5"/>
			<path class="st0" d="M249.9,124.8c0,0-17.4-43.2,0-43.2"/>
			<path class="st0" d="M246,128.9c0,0-25.3-53.5,3.9-53.5"/>
			<path class="st1" d="M238.5,134c0,1.1-0.9,1.9-1.9,1.9c-1,0-1.9-0.9-1.9-1.9s0.9-1.9,1.9-1.9C237.7,132.1,238.5,133,238.5,134z"
				/>
			<g>
				<path class="st1" d="M236.6,68.3c0,1-0.9,1.9-1.9,1.9s-1.9-0.9-1.9-1.9c0-1.1,0.9-1.9,1.9-1.9S236.6,67.2,236.6,68.3z"/>
				<path class="st1" d="M232.3,71.9c0,1-0.9,1.9-1.9,1.9s-1.9-0.9-1.9-1.9c0-1.1,0.9-1.9,1.9-1.9S232.3,70.8,232.3,71.9z"/>
				<path class="st1" d="M229.1,76.6c0,1.1-0.9,1.9-1.9,1.9s-1.9-0.9-1.9-1.9c0-1,0.9-1.9,1.9-1.9S229.1,75.6,229.1,76.6z"/>
				<path class="st1" d="M227.2,82.1c0,1.1-0.9,1.9-1.9,1.9s-1.9-0.9-1.9-1.9c0-1,0.9-1.9,1.9-1.9S227.2,81.1,227.2,82.1z"/>
				<path class="st1" d="M226.4,88.1c0,1.1-0.9,1.9-1.9,1.9c-1,0-1.9-0.9-1.9-1.9s0.9-1.9,1.9-1.9C225.6,86.1,226.4,87,226.4,88.1z"
					/>
				<path class="st1" d="M226.4,93.7c0,1-0.9,1.9-1.9,1.9c-1,0-1.9-0.9-1.9-1.9c0-1,0.9-1.9,1.9-1.9
					C225.6,91.8,226.4,92.7,226.4,93.7z"/>
				<path class="st1" d="M227.2,99.4c0,1-0.9,1.9-1.9,1.9s-1.9-0.9-1.9-1.9c0-1.1,0.9-1.9,1.9-1.9S227.2,98.3,227.2,99.4z"/>
				<path class="st1" d="M228.7,105c0,1-0.9,1.9-1.9,1.9c-1,0-1.9-0.9-1.9-1.9c0-1.1,0.9-1.9,1.9-1.9
					C227.8,103.1,228.7,104,228.7,105z"/>
				<path class="st1" d="M229.7,110c0,0.8-0.7,1.5-1.5,1.5c-0.8,0-1.5-0.7-1.5-1.5c0-0.8,0.7-1.5,1.5-1.5
					C229,108.5,229.7,109.2,229.7,110z"/>
				<path class="st1" d="M231.2,114.1c0,0.7-0.6,1.2-1.2,1.2c-0.7,0-1.2-0.6-1.2-1.2c0-0.7,0.6-1.2,1.2-1.2
					C230.6,112.9,231.2,113.5,231.2,114.1z"/>
				<path class="st1" d="M232.7,117.5c0,0.5-0.4,0.9-0.9,0.9c-0.5,0-0.9-0.4-0.9-0.9s0.4-0.9,0.9-0.9
					C232.3,116.6,232.7,117,232.7,117.5z"/>
				<path class="st1" d="M233.6,120.3c0,0.4-0.3,0.7-0.7,0.7c-0.4,0-0.7-0.3-0.7-0.7c0-0.4,0.3-0.7,0.7-0.7
					C233.3,119.7,233.6,120,233.6,120.3z"/>
			</g>
			<path class="st1" d="M233.6,136.2c0,1.1-0.9,1.9-1.9,1.9c-1,0-1.9-0.9-1.9-1.9s0.9-1.9,1.9-1.9
				C232.8,134.3,233.6,135.1,233.6,136.2z"/>
			<path class="st1" d="M232.4,52.7c0,1-0.9,1.9-1.9,1.9s-1.9-0.9-1.9-1.9s0.9-1.9,1.9-1.9S232.4,51.6,232.4,52.7z"/>
			<path class="st1" d="M228.5,137.8c0,1.1-0.9,1.9-1.9,1.9c-1,0-1.9-0.9-1.9-1.9c0-1,0.9-1.9,1.9-1.9
				C227.6,135.9,228.5,136.8,228.5,137.8z"/>
			<path class="st1" d="M185.4,89.5c0,1-0.9,1.9-1.9,1.9c-1.1,0-1.9-0.9-1.9-1.9c0-1.1,0.9-1.9,1.9-1.9
				C184.5,87.6,185.4,88.4,185.4,89.5z"/>
			<path class="st1" d="M191.8,104.9c0,1.1-0.9,1.9-1.9,1.9s-1.9-0.9-1.9-1.9c0-1,0.9-1.9,1.9-1.9S191.8,103.9,191.8,104.9z"/>
			<path class="st1" d="M193.3,109.5c0,0.9-0.7,1.6-1.6,1.6c-0.9,0-1.6-0.7-1.6-1.6c0-0.9,0.7-1.6,1.6-1.6
				C192.6,107.9,193.3,108.6,193.3,109.5z"/>
			<path class="st1" d="M223.3,139.3c0,1.1-0.9,1.9-1.9,1.9c-1.1,0-1.9-0.9-1.9-1.9c0-1,0.9-1.9,1.9-1.9
				C222.4,137.4,223.3,138.3,223.3,139.3z"/>
			<path class="st0" d="M249.9,65.7c0,0-11.8-22.3,0-22.3"/>
			<path class="st0" d="M245,66.4c0,0-16.6-5.4-10.7-11.1S245,66.4,245,66.4z"/>
			<path class="st0" d="M233.6,128.6c0,0-9.3-24.7-32.6-29c0,0,10.5,1,11.8,12.7C214.2,124,219.6,135.8,233.6,128.6z"/>
			<path class="st0" d="M219.5,91.8c-4-7.6-14.7-6.4-22.3-5.7c-8.5,0.9-17.8-6.6-17.8-6.6"/>
			<path class="st0" d="M206.7,111.5c0,0,7,13.8-1.2,26"/>
			<path class="st1" d="M192,97.5c0,2.8-2.3,5.1-5.1,5.1c-2.8,0-5.1-2.3-5.1-5.1c0-2.8,2.3-5.1,5.1-5.1
				C189.7,92.3,192,94.6,192,97.5z"/>
			<path class="st0" d="M195.5,112.2c0,0,10.5,0.6,7.1,18.1"/>
		</g>
		<path class="st0" d="M202.6,81.5c-0.1-0.3-1.8-9.9,4.9-20.3c0,0,11.1,0.3,19.8,7.7"/>
		<path class="st0" d="M212.4,83.1c0-0.6-3.9-7.5-2.8-17.9c0,0,8.4,5.5,13.4,11.5"/>
	</g>
	<g>
		<g>
			<path class="st0" d="M250,130.8"/>
			<path class="st0" d="M250,130.8"/>
			<path class="st0" d="M250,138.8"/>
			<path class="st0" d="M250,153.8"/>
			<path class="st0" d="M250,70"/>
			<path class="st0" d="M250,81.5"/>
			<path class="st0" d="M250,124.8"/>
			<path class="st0" d="M250,75.3"/>
			<path class="st0" d="M249.9,43.4"/>
			<path class="st0" d="M249.9,65.7"/>
		</g>
	</g>
</g>
<g>
	<g>
		<g>
			<path class="st0" d="M285.4,161.3c0,0,3.2-15.3-13.2-18.8c-16.4-3.6-22.3-11.6-22.3-11.6"/>
			<path class="st0" d="M250,130.8"/>
			<path class="st0" d="M250,153.8c0,0,8.7-15,0-15"/>
			<path class="st0" d="M256.2,153.8c0,0,1.3-10.9,5.5-9.2C266,146.4,256.2,153.8,256.2,153.8z"/>
			<path class="st0" d="M258.1,132.4c0,0,32.8-62.5-8.1-62.5"/>
			<path class="st0" d="M250,124.8c0,0,17.4-43.2,0-43.2"/>
			<path class="st0" d="M253.9,128.9c0,0,25.3-53.5-3.9-53.5"/>
			<path class="st1" d="M261.3,134c0,1.1,0.9,1.9,1.9,1.9c1,0,1.9-0.9,1.9-1.9s-0.9-1.9-1.9-1.9C262.2,132.1,261.3,133,261.3,134z"
				/>
			<g>
				<path class="st1" d="M263.2,68.3c0,1,0.9,1.9,1.9,1.9c1.1,0,1.9-0.9,1.9-1.9c0-1.1-0.9-1.9-1.9-1.9
					C264.1,66.4,263.2,67.2,263.2,68.3z"/>
				<path class="st1" d="M267.6,71.9c0,1,0.9,1.9,1.9,1.9c1.1,0,1.9-0.9,1.9-1.9c0-1.1-0.9-1.9-1.9-1.9
					C268.4,70,267.6,70.8,267.6,71.9z"/>
				<path class="st1" d="M270.7,76.6c0,1.1,0.9,1.9,1.9,1.9c1,0,1.9-0.9,1.9-1.9c0-1-0.9-1.9-1.9-1.9
					C271.6,74.7,270.7,75.6,270.7,76.6z"/>
				<path class="st1" d="M272.6,82.1c0,1.1,0.9,1.9,1.9,1.9c1,0,1.9-0.9,1.9-1.9c0-1-0.9-1.9-1.9-1.9
					C273.5,80.2,272.6,81.1,272.6,82.1z"/>
				<path class="st1" d="M273.4,88.1c0,1.1,0.9,1.9,1.9,1.9c1,0,1.9-0.9,1.9-1.9s-0.9-1.9-1.9-1.9C274.3,86.1,273.4,87,273.4,88.1z"
					/>
				<path class="st1" d="M273.4,93.7c0,1,0.9,1.9,1.9,1.9c1,0,1.9-0.9,1.9-1.9c0-1-0.9-1.9-1.9-1.9
					C274.3,91.8,273.4,92.7,273.4,93.7z"/>
				<path class="st1" d="M272.6,99.4c0,1,0.9,1.9,1.9,1.9c1,0,1.9-0.9,1.9-1.9c0-1.1-0.9-1.9-1.9-1.9
					C273.5,97.5,272.6,98.3,272.6,99.4z"/>
				<path class="st1" d="M271.2,105c0,1,0.9,1.9,1.9,1.9s1.9-0.9,1.9-1.9c0-1.1-0.9-1.9-1.9-1.9S271.2,104,271.2,105z"/>
				<path class="st1" d="M270.2,110c0,0.8,0.7,1.5,1.5,1.5c0.8,0,1.5-0.7,1.5-1.5c0-0.8-0.7-1.5-1.5-1.5
					C270.8,108.5,270.2,109.2,270.2,110z"/>
				<path class="st1" d="M268.7,114.1c0,0.7,0.6,1.2,1.2,1.2c0.7,0,1.2-0.6,1.2-1.2c0-0.7-0.6-1.2-1.2-1.2
					C269.2,112.9,268.7,113.5,268.7,114.1z"/>
				<path class="st1" d="M267.2,117.5c0,0.5,0.4,0.9,0.9,0.9c0.5,0,0.9-0.4,0.9-0.9s-0.4-0.9-0.9-0.9
					C267.6,116.6,267.2,117,267.2,117.5z"/>
				<path class="st1" d="M266.2,120.3c0,0.4,0.3,0.7,0.7,0.7c0.4,0,0.7-0.3,0.7-0.7c0-0.4-0.3-0.7-0.7-0.7
					C266.5,119.7,266.2,120,266.2,120.3z"/>
			</g>
			<path class="st1" d="M266.2,136.2c0,1.1,0.9,1.9,1.9,1.9c1,0,1.9-0.9,1.9-1.9s-0.9-1.9-1.9-1.9
				C267.1,134.3,266.2,135.1,266.2,136.2z"/>
			<path class="st1" d="M267.4,52.7c0,1,0.9,1.9,1.9,1.9c1.1,0,1.9-0.9,1.9-1.9s-0.9-1.9-1.9-1.9C268.3,50.8,267.4,51.6,267.4,52.7z
				"/>
			<path class="st1" d="M271.4,137.8c0,1.1,0.9,1.9,1.9,1.9c1.1,0,1.9-0.9,1.9-1.9c0-1-0.9-1.9-1.9-1.9
				C272.2,135.9,271.4,136.8,271.4,137.8z"/>
			<path class="st1" d="M314.5,89.5c0,1,0.9,1.9,1.9,1.9c1.1,0,1.9-0.9,1.9-1.9c0-1.1-0.9-1.9-1.9-1.9
				C315.4,87.6,314.5,88.4,314.5,89.5z"/>
			<path class="st1" d="M308.1,104.9c0,1.1,0.9,1.9,1.9,1.9c1,0,1.9-0.9,1.9-1.9c0-1-0.9-1.9-1.9-1.9
				C309,103,308.1,103.9,308.1,104.9z"/>
			<path class="st1" d="M306.5,109.5c0,0.9,0.7,1.6,1.6,1.6c0.9,0,1.6-0.7,1.6-1.6c0-0.9-0.7-1.6-1.6-1.6
				C307.2,107.9,306.5,108.6,306.5,109.5z"/>
			<path class="st1" d="M276.6,139.3c0,1.1,0.9,1.9,1.9,1.9c1,0,1.9-0.9,1.9-1.9c0-1-0.9-1.9-1.9-1.9
				C277.5,137.4,276.6,138.3,276.6,139.3z"/>
			<path class="st0" d="M249.9,65.7c0,0,11.8-22.3,0-22.3"/>
			<path class="st0" d="M254.9,66.4c0,0,16.6-5.4,10.7-11.1S254.9,66.4,254.9,66.4z"/>
			<path class="st0" d="M266.2,128.6c0,0,9.3-24.7,32.6-29c0,0-10.5,1-11.8,12.7C285.6,124,280.3,135.8,266.2,128.6z"/>
			<path class="st0" d="M280.4,91.8c4-7.6,14.7-6.4,22.3-5.7c8.5,0.9,17.8-6.6,17.8-6.6"/>
			<path class="st0" d="M293.2,111.5c0,0-7,13.8,1.2,26"/>
			<path class="st1" d="M307.9,97.5c0,2.8,2.3,5.1,5.1,5.1c2.8,0,5.1-2.3,5.1-5.1c0-2.8-2.3-5.1-5.1-5.1
				C310.2,92.3,307.9,94.6,307.9,97.5z"/>
			<path class="st0" d="M304.4,112.2c0,0-10.5,0.6-7.1,18.1"/>
		</g>
		<path class="st0" d="M297.3,81.5c0.1-0.3,1.8-9.9-4.9-20.3c0,0-11.1,0.3-19.8,7.7"/>
		<path class="st0" d="M287.5,83.1c0-0.6,3.9-7.5,2.8-17.9c0,0-8.4,5.5-13.4,11.5"/>
	</g>
	<g>
		<g>
			<path class="st0" d="M249.9,130.8"/>
			<path class="st0" d="M249.9,130.8"/>
			<path class="st0" d="M249.9,138.8"/>
			<path class="st0" d="M249.9,153.8"/>
			<path class="st0" d="M249.9,70"/>
			<path class="st0" d="M249.9,81.5"/>
			<path class="st0" d="M249.9,124.8"/>
			<path class="st0" d="M249.9,75.3"/>
			<path class="st1" d="M251.8,39c0-1-0.8-1.9-1.9-1.9v0c0,0,0,0,0,0c0,0,0,0,0,0v0c-1,0-1.9,0.9-1.9,1.9c0,1,0.8,1.9,1.9,1.9v0
				c0,0,0,0,0,0c0,0,0,0,0,0v0C251,40.9,251.8,40,251.8,39z"/>
			<path class="st0" d="M249.9,43.4"/>
			<path class="st0" d="M249.9,65.7"/>
		</g>
	</g>
</g>
<g>
	<g>
		<g>
			<path class="st0" d="M287.6,162.1c0,0,8.5-13.1,22.7-4c14.1,9.1,24,7.5,24,7.5"/>
			<path class="st0" d="M334.2,165.7"/>
			<path class="st0" d="M317.9,181.9c0,0,4.4-16.8,10.6-10.6"/>
			<path class="st0" d="M313.5,177.5c0,0,6.8-8.6,2.6-10.4S313.5,177.5,313.5,177.5z"/>
			<path class="st0" d="M327.3,161.1c0,0,21-67.4,49.9-38.4"/>
			<path class="st0" d="M338.5,161.4c0,0,18.3-42.9,30.6-30.6"/>
			<path class="st0" d="M332.8,161.5c0,0,20-55.8,40.6-35.1"/>
			<circle class="st1" cx="322.5" cy="158.5" r="1.9"/>
			<g>
				<circle class="st1" cx="367.7" cy="110.7" r="1.9"/>
				<circle class="st1" cx="362.1" cy="110.2" r="1.9"/>
				<circle class="st1" cx="356.5" cy="111.3" r="1.9"/>
				<circle class="st1" cx="351.3" cy="113.8" r="1.9"/>
				<circle class="st1" cx="346.5" cy="117.5" r="1.9"/>
				<circle class="st1" cx="342.5" cy="121.5" r="1.9"/>
				<circle class="st1" cx="339.1" cy="126.1" r="1.9"/>
				<circle class="st1" cx="336.1" cy="131.1" r="1.9"/>
				<path class="st1" d="M334.6,136.7c-0.6,0.6-1.5,0.6-2.1,0c-0.6-0.6-0.6-1.5,0-2.1c0.6-0.6,1.5-0.6,2.1,0
					C335.2,135.2,335.2,136.1,334.6,136.7z"/>
				<circle class="st1" cx="331.9" cy="139.8" r="1.2"/>
				<circle class="st1" cx="330.8" cy="143.4" r="0.9"/>
				<path class="st1" d="M330.1,146.8c-0.3,0.3-0.7,0.3-1,0c-0.3-0.3-0.3-0.7,0-1c0.3-0.3,0.7-0.3,1,0
					C330.4,146,330.4,146.5,330.1,146.8z"/>
			</g>
			<circle class="st1" cx="317.6" cy="156.6" r="1.9"/>
			<circle class="st1" cx="375.8" cy="96.7" r="1.9"/>
			<circle class="st1" cx="312.8" cy="154.1" r="1.9"/>
			<circle class="st1" cx="316.5" cy="89.4" r="1.9"/>
			<circle class="st1" cx="310" cy="104.9" r="1.9"/>
			<path class="st1" d="M309.3,110.6c-0.6,0.6-1.6,0.6-2.3,0c-0.6-0.6-0.6-1.6,0-2.3c0.6-0.6,1.6-0.6,2.3,0
				C309.9,109,309.9,110,309.3,110.6z"/>
			<circle class="st1" cx="308" cy="151.5" r="1.9"/>
			<path class="st0" d="M380.3,119.7c0,0,7.4-24.1,15.8-15.8"/>
			<path class="st0" d="M376.3,116.6c0,0-7.9-15.6,0.3-15.4C384.8,101.3,376.3,116.6,376.3,116.6z"/>
			<path class="st0" d="M324.3,152.6c0,0,10.9-24-2.6-43.6c0,0,6.7,8.1-0.6,17.4C313.8,135.6,309.2,147.8,324.3,152.6z"/>
			<path class="st0" d="M340.3,116.6c2.5-8.2-5.9-15-11.8-19.8c-6.6-5.4-7.9-17.2-7.9-17.2"/>
			<path class="st0" d="M317.3,121.4c0,0-4.8,14.7-19.2,17.5"/>
			<circle class="st1" cx="313.2" cy="97.5" r="5.1"/>
			<path class="st0" d="M308.9,114c0,0,7,7.9-7.8,17.8"/>
		</g>
		<path class="st0" d="M335.6,97.3c0.2-0.3,5.7-8.3,17.8-10.9c0,0,7.6,8.1,8.5,19.4"/>
		<path class="st0" d="M341.4,105.3c0.4-0.4,2.5-8.1,10.7-14.7c0,0,2.1,9.8,1.3,17.6"/>
	</g>
	<g>
		<g>
			<path class="st0" d="M334.3,165.7"/>
			<path class="st0" d="M334.3,165.7"/>
			<path class="st0" d="M328.6,171.4"/>
			<path class="st0" d="M318,182"/>
			<path class="st0" d="M377.3,122.7"/>
			<path class="st0" d="M369.1,130.9"/>
			<path class="st0" d="M338.5,161.4"/>
			<path class="st0" d="M373.5,126.5"/>
			<path class="st0" d="M396,103.9"/>
			<path class="st0" d="M380.3,119.7"/>
		</g>
	</g>
</g>
<g>
	<g>
		<g>
			<path class="st0" d="M337.8,212.4c0,0,13.1-8.5,4-22.7c-9.1-14.1-7.5-24-7.5-24"/>
			<path class="st0" d="M334.3,165.7"/>
			<path class="st0" d="M318,182c0,0,16.8-4.4,10.6-10.6"/>
			<path class="st0" d="M322.4,186.4c0,0,8.6-6.8,10.4-2.6C334.6,188,322.4,186.4,322.4,186.4z"/>
			<path class="st0" d="M338.8,172.6c0,0,67.4-21,38.4-49.9"/>
			<path class="st0" d="M338.5,161.4c0,0,42.9-18.3,30.6-30.6"/>
			<path class="st0" d="M338.4,167.1c0,0,55.8-20,35.1-40.6"/>
			<circle class="st1" cx="341.4" cy="177.4" r="1.9"/>
			<g>
				<circle class="st1" cx="389.2" cy="132.2" r="1.9"/>
				<circle class="st1" cx="389.7" cy="137.8" r="1.9"/>
				<circle class="st1" cx="388.6" cy="143.4" r="1.9"/>
				<circle class="st1" cx="386.1" cy="148.6" r="1.9"/>
				<circle class="st1" cx="382.4" cy="153.4" r="1.9"/>
				<circle class="st1" cx="378.4" cy="157.4" r="1.9"/>
				<circle class="st1" cx="373.9" cy="160.8" r="1.9"/>
				<circle class="st1" cx="368.8" cy="163.8" r="1.9"/>
				<circle class="st1" cx="364.3" cy="166.3" r="1.5"/>
				<path class="st1" d="M359.3,167.1c-0.5,0.5-0.5,1.3,0,1.7c0.5,0.5,1.3,0.5,1.7,0c0.5-0.5,0.5-1.3,0-1.7
					C360.5,166.7,359.8,166.7,359.3,167.1z"/>
				<circle class="st1" cx="356.5" cy="169.1" r="0.9"/>
				<circle class="st1" cx="353.6" cy="170.3" r="0.7"/>
			</g>
			<circle class="st1" cx="343.3" cy="182.3" r="1.9"/>
			<circle class="st1" cx="403.2" cy="124.1" r="1.9"/>
			<circle class="st1" cx="345.8" cy="187.1" r="1.9"/>
			<circle class="st1" cx="410.5" cy="183.5" r="1.9"/>
			<circle class="st1" cx="395" cy="189.9" r="1.9"/>
			<path class="st1" d="M389.3,190.6c-0.6,0.6-0.6,1.6,0,2.3c0.6,0.6,1.6,0.6,2.3,0c0.6-0.6,0.6-1.6,0-2.3
				C390.9,190,389.9,190,389.3,190.6z"/>
			<circle class="st1" cx="348.4" cy="191.9" r="1.9"/>
			<path class="st0" d="M380.3,119.7c0,0,24.1-7.4,15.8-15.8"/>
			<path class="st0" d="M383.3,123.6c0,0,15.6,7.9,15.4-0.3C398.6,115.1,383.3,123.6,383.3,123.6z"/>
			<path class="st0" d="M347.3,175.7c0,0,24-10.9,43.6,2.6c0,0-8.1-6.7-17.4,0.6C364.3,186.1,352.1,190.7,347.3,175.7z"/>
			<path class="st0" d="M383.4,159.6c8.2-2.5,15,5.9,19.8,11.8c5.4,6.6,17.2,7.9,17.2,7.9"/>
			<path class="st0" d="M378.5,182.6c0,0-14.7,4.8-17.5,19.2"/>
			<circle class="st1" cx="402.4" cy="186.7" r="5.1"/>
			<path class="st0" d="M385.9,191c0,0-7.9-7-17.8,7.8"/>
		</g>
		<path class="st0" d="M402.6,164.3c0.3-0.2,8.3-5.7,10.9-17.8c0,0-8.1-7.6-19.4-8.5"/>
		<path class="st0" d="M394.6,158.5c0.4-0.4,8.1-2.5,14.7-10.7c0,0-9.8-2.1-17.6-1.3"/>
	</g>
	<g>
		<g>
			<path class="st0" d="M334.2,165.7"/>
			<path class="st0" d="M334.2,165.7"/>
			<path class="st0" d="M328.5,171.3"/>
			<path class="st0" d="M317.9,181.9"/>
			<path class="st0" d="M377.2,122.6"/>
			<path class="st0" d="M369,130.8"/>
			<path class="st0" d="M338.5,161.4"/>
			<path class="st0" d="M373.4,126.4"/>
			<path class="st1" d="M400.5,102.1c0.7-0.7,0.7-1.9,0-2.7l0,0c0,0,0,0,0,0c0,0,0,0,0,0l0,0c-0.7-0.7-1.9-0.7-2.7,0
				c-0.7,0.7-0.7,1.9,0,2.7l0,0c0,0,0,0,0,0c0,0,0,0,0,0l0,0C398.6,102.8,399.8,102.8,400.5,102.1z"/>
			<path class="st0" d="M396,103.9"/>
			<path class="st0" d="M380.3,119.7"/>
		</g>
	</g>
</g>
<g>
	<g>
		<g>
			<path class="st0" d="M338.7,214.4c0,0,15.3-3.2,18.8,13.2c3.6,16.4,11.6,22.3,11.6,22.3"/>
			<path class="st0" d="M369.2,249.9"/>
			<path class="st0" d="M346.2,249.9c0,0,15-8.7,15,0"/>
			<path class="st0" d="M346.2,243.6c0,0,10.9-1.3,9.2-5.5C353.6,233.9,346.2,243.6,346.2,243.6z"/>
			<path class="st0" d="M367.6,241.8c0,0,62.5-32.8,62.5,8.1"/>
			<path class="st0" d="M375.2,249.9c0,0,43.2-17.4,43.2,0"/>
			<path class="st0" d="M371.1,246c0,0,53.5-25.3,53.5,3.9"/>
			<path class="st1" d="M366,238.5c-1,0-1.9-0.9-1.9-1.9c0-1,0.9-1.9,1.9-1.9c1.1,0,1.9,0.9,1.9,1.9
				C367.9,237.7,367,238.5,366,238.5z"/>
			<g>
				<path class="st1" d="M431.7,236.6c-1.1,0-1.9-0.9-1.9-1.9c0-1,0.9-1.9,1.9-1.9c1,0,1.9,0.9,1.9,1.9
					C433.6,235.8,432.8,236.6,431.7,236.6z"/>
				<path class="st1" d="M428.1,232.3c-1,0-1.9-0.9-1.9-1.9c0-1.1,0.9-1.9,1.9-1.9c1.1,0,1.9,0.9,1.9,1.9
					C430,231.4,429.2,232.3,428.1,232.3z"/>
				<path class="st1" d="M423.4,229.1c-1,0-1.9-0.9-1.9-1.9s0.9-1.9,1.9-1.9c1,0,1.9,0.9,1.9,1.9S424.4,229.1,423.4,229.1z"/>
				<path class="st1" d="M417.9,227.2c-1,0-1.9-0.9-1.9-1.9s0.9-1.9,1.9-1.9c1.1,0,1.9,0.9,1.9,1.9S418.9,227.2,417.9,227.2z"/>
				<path class="st1" d="M411.9,226.4c-1,0-1.9-0.9-1.9-1.9s0.9-1.9,1.9-1.9c1.1,0,1.9,0.9,1.9,1.9S413,226.4,411.9,226.4z"/>
				<path class="st1" d="M406.3,226.4c-1.1,0-1.9-0.9-1.9-1.9s0.9-1.9,1.9-1.9c1,0,1.9,0.9,1.9,1.9S407.3,226.4,406.3,226.4z"/>
				<path class="st1" d="M400.6,227.2c-1,0-1.9-0.9-1.9-1.9s0.9-1.9,1.9-1.9s1.9,0.9,1.9,1.9S401.7,227.2,400.6,227.2z"/>
				<path class="st1" d="M395,228.7c-1,0-1.9-0.9-1.9-1.9c0-1.1,0.9-1.9,1.9-1.9c1.1,0,1.9,0.9,1.9,1.9
					C396.9,227.8,396,228.7,395,228.7z"/>
				<path class="st1" d="M390,229.7c-0.8,0-1.5-0.7-1.5-1.5c0-0.8,0.7-1.5,1.5-1.5c0.8,0,1.5,0.7,1.5,1.5
					C391.5,229,390.8,229.7,390,229.7z"/>
				<path class="st1" d="M385.9,231.2c-0.7,0-1.2-0.6-1.2-1.2c0-0.7,0.6-1.2,1.2-1.2c0.7,0,1.2,0.6,1.2,1.2
					C387.1,230.6,386.5,231.2,385.9,231.2z"/>
				<path class="st1" d="M382.5,232.7c-0.5,0-0.9-0.4-0.9-0.9c0-0.5,0.4-0.9,0.9-0.9s0.9,0.4,0.9,0.9
					C383.4,232.3,383,232.7,382.5,232.7z"/>
				<path class="st1" d="M379.7,233.6c-0.4,0-0.7-0.3-0.7-0.7c0-0.4,0.3-0.7,0.7-0.7c0.4,0,0.7,0.3,0.7,0.7
					C380.3,233.3,380,233.6,379.7,233.6z"/>
			</g>
			<path class="st1" d="M363.8,233.6c-1.1,0-1.9-0.9-1.9-1.9s0.9-1.9,1.9-1.9c1,0,1.9,0.9,1.9,1.9S364.9,233.6,363.8,233.6z"/>
			<path class="st1" d="M447.3,232.4c-1.1,0-1.9-0.9-1.9-1.9s0.9-1.9,1.9-1.9c1,0,1.9,0.9,1.9,1.9S448.4,232.4,447.3,232.4z"/>
			<path class="st1" d="M362.2,228.5c-1.1,0-1.9-0.9-1.9-1.9s0.9-1.9,1.9-1.9c1,0,1.9,0.9,1.9,1.9S363.2,228.5,362.2,228.5z"/>
			<path class="st1" d="M410.5,185.4c-1,0-1.9-0.9-1.9-1.9s0.9-1.9,1.9-1.9c1.1,0,1.9,0.9,1.9,1.9S411.6,185.4,410.5,185.4z"/>
			<path class="st1" d="M395.1,191.8c-1.1,0-1.9-0.9-1.9-1.9s0.9-1.9,1.9-1.9c1,0,1.9,0.9,1.9,1.9S396.1,191.8,395.1,191.8z"/>
			<path class="st1" d="M390.5,193.3c-0.9,0-1.6-0.7-1.6-1.6c0-0.9,0.7-1.6,1.6-1.6c0.9,0,1.6,0.7,1.6,1.6
				C392.1,192.6,391.4,193.3,390.5,193.3z"/>
			<path class="st1" d="M360.7,223.3c-1,0-1.9-0.9-1.9-1.9c0-1.1,0.9-1.9,1.9-1.9c1.1,0,1.9,0.9,1.9,1.9
				C362.6,222.4,361.7,223.3,360.7,223.3z"/>
			<path class="st0" d="M434.3,249.9c0,0,22.3-11.8,22.3,0"/>
			<path class="st0" d="M433.6,245c0,0,5.4-16.6,11.1-10.7C450.4,240.2,433.6,245,433.6,245z"/>
			<path class="st0" d="M371.4,233.6c0,0,24.7-9.3,29-32.6c0,0-1,10.5-12.7,11.8C376,214.2,364.2,219.6,371.4,233.6z"/>
			<path class="st0" d="M408.2,219.5c7.6-4,6.4-14.7,5.7-22.3c-0.9-8.5,6.6-17.8,6.6-17.8"/>
			<path class="st0" d="M388.5,206.7c0,0-13.8,7-26-1.2"/>
			<path class="st1" d="M402.5,192c-2.8,0-5.1-2.3-5.1-5.1c0-2.8,2.3-5.1,5.1-5.1c2.8,0,5.1,2.3,5.1,5.1
				C407.7,189.7,405.4,192,402.5,192z"/>
			<path class="st0" d="M387.8,195.5c0,0-0.6,10.5-18.1,7.1"/>
		</g>
		<path class="st0" d="M418.5,202.6c0.3-0.1,9.9-1.8,20.3,4.9c0,0-0.3,11.1-7.7,19.8"/>
		<path class="st0" d="M416.9,212.4c0.6,0,7.5-3.9,17.9-2.8c0,0-5.5,8.4-11.5,13.4"/>
	</g>
	<g>
		<g>
			<path class="st0" d="M369.2,250"/>
			<path class="st0" d="M369.2,250"/>
			<path class="st0" d="M361.2,250"/>
			<path class="st0" d="M346.2,250"/>
			<path class="st0" d="M430,250"/>
			<path class="st0" d="M418.5,250"/>
			<path class="st0" d="M375.2,250"/>
			<path class="st0" d="M424.7,250"/>
			<path class="st0" d="M456.6,249.9"/>
			<path class="st0" d="M434.3,249.9"/>
		</g>
	</g>
</g>
<g>
	<g>
		<g>
			<path class="st0" d="M338.7,285.4c0,0,15.3,3.2,18.8-13.2c3.6-16.4,11.6-22.3,11.6-22.3"/>
			<path class="st0" d="M369.2,250"/>
			<path class="st0" d="M346.2,250c0,0,15,8.7,15,0"/>
			<path class="st0" d="M346.2,256.2c0,0,10.9,1.3,9.2,5.5C353.6,266,346.2,256.2,346.2,256.2z"/>
			<path class="st0" d="M367.6,258.1c0,0,62.5,32.8,62.5-8.1"/>
			<path class="st0" d="M375.2,250c0,0,43.2,17.4,43.2,0"/>
			<path class="st0" d="M371.1,253.9c0,0,53.5,25.3,53.5-3.9"/>
			<path class="st1" d="M366,261.3c-1,0-1.9,0.9-1.9,1.9c0,1,0.9,1.9,1.9,1.9c1.1,0,1.9-0.9,1.9-1.9
				C367.9,262.2,367,261.3,366,261.3z"/>
			<g>
				<path class="st1" d="M431.7,263.2c-1.1,0-1.9,0.9-1.9,1.9c0,1.1,0.9,1.9,1.9,1.9c1,0,1.9-0.9,1.9-1.9
					C433.6,264.1,432.8,263.2,431.7,263.2z"/>
				<path class="st1" d="M428.1,267.6c-1,0-1.9,0.9-1.9,1.9c0,1.1,0.9,1.9,1.9,1.9c1.1,0,1.9-0.9,1.9-1.9
					C430,268.4,429.2,267.6,428.1,267.6z"/>
				<path class="st1" d="M423.4,270.7c-1,0-1.9,0.9-1.9,1.9s0.9,1.9,1.9,1.9c1,0,1.9-0.9,1.9-1.9S424.4,270.7,423.4,270.7z"/>
				<path class="st1" d="M417.9,272.6c-1,0-1.9,0.9-1.9,1.9c0,1,0.9,1.9,1.9,1.9c1.1,0,1.9-0.9,1.9-1.9
					C419.8,273.5,418.9,272.6,417.9,272.6z"/>
				<path class="st1" d="M411.9,273.4c-1,0-1.9,0.9-1.9,1.9c0,1.1,0.9,1.9,1.9,1.9c1.1,0,1.9-0.9,1.9-1.9
					C413.9,274.3,413,273.4,411.9,273.4z"/>
				<path class="st1" d="M406.3,273.4c-1.1,0-1.9,0.9-1.9,1.9c0,1.1,0.9,1.9,1.9,1.9c1,0,1.9-0.9,1.9-1.9
					C408.2,274.3,407.3,273.4,406.3,273.4z"/>
				<path class="st1" d="M400.6,272.6c-1,0-1.9,0.9-1.9,1.9c0,1,0.9,1.9,1.9,1.9s1.9-0.9,1.9-1.9
					C402.5,273.5,401.7,272.6,400.6,272.6z"/>
				<path class="st1" d="M395,271.2c-1,0-1.9,0.9-1.9,1.9c0,1.1,0.9,1.9,1.9,1.9c1.1,0,1.9-0.9,1.9-1.9
					C396.9,272.1,396,271.2,395,271.2z"/>
				<path class="st1" d="M390,270.2c-0.8,0-1.5,0.7-1.5,1.5c0,0.8,0.7,1.5,1.5,1.5c0.8,0,1.5-0.7,1.5-1.5
					C391.5,270.8,390.8,270.2,390,270.2z"/>
				<path class="st1" d="M385.9,268.7c-0.7,0-1.2,0.6-1.2,1.2c0,0.7,0.6,1.2,1.2,1.2c0.7,0,1.2-0.6,1.2-1.2
					C387.1,269.2,386.5,268.7,385.9,268.7z"/>
				<path class="st1" d="M382.5,267.2c-0.5,0-0.9,0.4-0.9,0.9c0,0.5,0.4,0.9,0.9,0.9s0.9-0.4,0.9-0.9
					C383.4,267.6,383,267.2,382.5,267.2z"/>
				<path class="st1" d="M379.7,266.2c-0.4,0-0.7,0.3-0.7,0.7c0,0.4,0.3,0.7,0.7,0.7c0.4,0,0.7-0.3,0.7-0.7
					C380.3,266.5,380,266.2,379.7,266.2z"/>
			</g>
			<path class="st1" d="M363.8,266.2c-1.1,0-1.9,0.9-1.9,1.9c0,1,0.9,1.9,1.9,1.9c1,0,1.9-0.9,1.9-1.9
				C365.7,267.1,364.9,266.2,363.8,266.2z"/>
			<path class="st1" d="M447.3,267.4c-1.1,0-1.9,0.9-1.9,1.9c0,1.1,0.9,1.9,1.9,1.9c1,0,1.9-0.9,1.9-1.9
				C449.2,268.3,448.4,267.4,447.3,267.4z"/>
			<path class="st1" d="M362.2,271.4c-1.1,0-1.9,0.9-1.9,1.9c0,1,0.9,1.9,1.9,1.9c1,0,1.9-0.9,1.9-1.9
				C364.1,272.2,363.2,271.4,362.2,271.4z"/>
			<path class="st1" d="M410.5,314.5c-1,0-1.9,0.9-1.9,1.9c0,1,0.9,1.9,1.9,1.9c1.1,0,1.9-0.9,1.9-1.9
				C412.4,315.4,411.6,314.5,410.5,314.5z"/>
			<path class="st1" d="M395.1,308.1c-1.1,0-1.9,0.9-1.9,1.9c0,1,0.9,1.9,1.9,1.9c1,0,1.9-0.9,1.9-1.9
				C397,309,396.1,308.1,395.1,308.1z"/>
			<path class="st1" d="M390.5,306.5c-0.9,0-1.6,0.7-1.6,1.6c0,0.9,0.7,1.6,1.6,1.6c0.9,0,1.6-0.7,1.6-1.6
				C392.1,307.2,391.4,306.5,390.5,306.5z"/>
			<path class="st1" d="M360.7,276.6c-1,0-1.9,0.9-1.9,1.9c0,1.1,0.9,1.9,1.9,1.9c1.1,0,1.9-0.9,1.9-1.9
				C362.6,277.5,361.7,276.6,360.7,276.6z"/>
			<path class="st0" d="M434.3,249.9c0,0,22.3,11.8,22.3,0"/>
			<path class="st0" d="M433.6,254.9c0,0,5.4,16.6,11.1,10.7C450.4,259.7,433.6,254.9,433.6,254.9z"/>
			<path class="st0" d="M371.4,266.2c0,0,24.7,9.3,29,32.6c0,0-1-10.5-12.7-11.8C376,285.6,364.2,280.3,371.4,266.2z"/>
			<path class="st0" d="M408.2,280.4c7.6,4,6.4,14.7,5.7,22.3c-0.9,8.5,6.6,17.8,6.6,17.8"/>
			<path class="st0" d="M388.5,293.2c0,0-13.8-7-26,1.2"/>
			<path class="st1" d="M402.5,307.9c-2.8,0-5.1,2.3-5.1,5.1c0,2.8,2.3,5.1,5.1,5.1c2.8,0,5.1-2.3,5.1-5.1
				C407.7,310.2,405.4,307.9,402.5,307.9z"/>
			<path class="st0" d="M387.8,304.4c0,0-0.6-10.5-18.1-7.1"/>
		</g>
		<path class="st0" d="M418.5,297.3c0.3,0.1,9.9,1.8,20.3-4.9c0,0-0.3-11.1-7.7-19.8"/>
		<path class="st0" d="M416.9,287.5c0.6,0,7.5,3.9,17.9,2.8c0,0-5.5-8.4-11.5-13.4"/>
	</g>
	<g>
		<g>
			<path class="st0" d="M369.2,249.9"/>
			<path class="st0" d="M369.2,249.9"/>
			<path class="st0" d="M361.2,249.9"/>
			<path class="st0" d="M346.2,249.9"/>
			<path class="st0" d="M430,249.9"/>
			<path class="st0" d="M418.5,249.9"/>
			<path class="st0" d="M375.2,249.9"/>
			<path class="st0" d="M424.7,249.9"/>
			<path class="st1" d="M461,251.8c1,0,1.9-0.8,1.9-1.9h0c0,0,0,0,0,0c0,0,0,0,0,0h0c0-1-0.9-1.9-1.9-1.9c-1,0-1.9,0.8-1.9,1.9h0
				c0,0,0,0,0,0c0,0,0,0,0,0h0C459.1,251,460,251.8,461,251.8z"/>
			<path class="st0" d="M456.6,249.9"/>
			<path class="st0" d="M434.3,249.9"/>
		</g>
	</g>
</g>
<g>
	<g>
		<g>
			<path class="st0" d="M337.9,287.6c0,0,13.1,8.5,4,22.7s-7.5,24-7.5,24"/>
			<path class="st0" d="M334.3,334.2"/>
			<path class="st0" d="M318.1,317.9c0,0,16.8,4.4,10.6,10.6"/>
			<path class="st0" d="M322.5,313.5c0,0,8.6,6.8,10.4,2.6S322.5,313.5,322.5,313.5z"/>
			<path class="st0" d="M338.9,327.3c0,0,67.4,21,38.4,49.9"/>
			<path class="st0" d="M338.6,338.5c0,0,42.9,18.3,30.6,30.6"/>
			<path class="st0" d="M338.5,332.8c0,0,55.8,20,35.1,40.6"/>
			<circle class="st1" cx="341.5" cy="322.5" r="1.9"/>
			<g>
				<circle class="st1" cx="389.3" cy="367.7" r="1.9"/>
				<circle class="st1" cx="389.8" cy="362.1" r="1.9"/>
				<circle class="st1" cx="388.7" cy="356.5" r="1.9"/>
				<circle class="st1" cx="386.2" cy="351.3" r="1.9"/>
				<circle class="st1" cx="382.5" cy="346.5" r="1.9"/>
				<circle class="st1" cx="378.5" cy="342.5" r="1.9"/>
				<circle class="st1" cx="373.9" cy="339.1" r="1.9"/>
				<circle class="st1" cx="368.9" cy="336.1" r="1.9"/>
				<path class="st1" d="M363.3,334.6c-0.6-0.6-0.6-1.5,0-2.1c0.6-0.6,1.5-0.6,2.1,0c0.6,0.6,0.6,1.5,0,2.1
					C364.8,335.2,363.9,335.2,363.3,334.6z"/>
				<circle class="st1" cx="360.2" cy="331.9" r="1.2"/>
				<circle class="st1" cx="356.6" cy="330.8" r="0.9"/>
				<path class="st1" d="M353.2,330.1c-0.3-0.3-0.3-0.7,0-1c0.3-0.3,0.7-0.3,1,0c0.3,0.3,0.3,0.7,0,1
					C354,330.4,353.5,330.4,353.2,330.1z"/>
			</g>
			<circle class="st1" cx="343.4" cy="317.6" r="1.9"/>
			<circle class="st1" cx="403.3" cy="375.8" r="1.9"/>
			<circle class="st1" cx="345.9" cy="312.8" r="1.9"/>
			<circle class="st1" cx="410.6" cy="316.5" r="1.9"/>
			<circle class="st1" cx="395.1" cy="310" r="1.9"/>
			<path class="st1" d="M389.4,309.3c-0.6-0.6-0.6-1.6,0-2.3c0.6-0.6,1.6-0.6,2.3,0c0.6,0.6,0.6,1.6,0,2.3
				C391,309.9,390,309.9,389.4,309.3z"/>
			<circle class="st1" cx="348.5" cy="308" r="1.9"/>
			<path class="st0" d="M380.3,380.3c0,0,24.1,7.4,15.8,15.8"/>
			<path class="st0" d="M383.4,376.3c0,0,15.6-7.9,15.4,0.3C398.7,384.8,383.4,376.3,383.4,376.3z"/>
			<path class="st0" d="M347.4,324.3c0,0,24,10.9,43.6-2.6c0,0-8.1,6.7-17.4-0.6C364.4,313.8,352.2,309.2,347.4,324.3z"/>
			<path class="st0" d="M383.4,340.3c8.2,2.5,15-5.9,19.8-11.8c5.4-6.6,17.2-7.9,17.2-7.9"/>
			<path class="st0" d="M378.6,317.3c0,0-14.7-4.8-17.5-19.2"/>
			<circle class="st1" cx="402.5" cy="313.2" r="5.1"/>
			<path class="st0" d="M386,308.9c0,0-7.9,7-17.8-7.8"/>
		</g>
		<path class="st0" d="M402.7,335.6c0.3,0.2,8.3,5.7,10.9,17.8c0,0-8.1,7.6-19.4,8.5"/>
		<path class="st0" d="M394.7,341.4c0.4,0.4,8.1,2.5,14.7,10.7c0,0-9.8,2.1-17.6,1.3"/>
	</g>
	<g>
		<g>
			<path class="st0" d="M334.3,334.3"/>
			<path class="st0" d="M334.3,334.3"/>
			<path class="st0" d="M328.6,328.6"/>
			<path class="st0" d="M318,318"/>
			<path class="st0" d="M377.3,377.3"/>
			<path class="st0" d="M369.1,369.1"/>
			<path class="st0" d="M338.6,338.5"/>
			<path class="st0" d="M373.5,373.5"/>
			<path class="st0" d="M396.1,396"/>
			<path class="st0" d="M380.3,380.3"/>
		</g>
	</g>
</g>
<g>
	<g>
		<g>
			<path class="st0" d="M287.6,337.8c0,0,8.5,13.1,22.7,4c14.1-9.1,24-7.5,24-7.5"/>
			<path class="st0" d="M334.3,334.3"/>
			<path class="st0" d="M318,318c0,0,4.4,16.8,10.6,10.6"/>
			<path class="st0" d="M313.6,322.4c0,0,6.8,8.6,2.6,10.4C312,334.6,313.6,322.4,313.6,322.4z"/>
			<path class="st0" d="M327.4,338.8c0,0,21,67.4,49.9,38.4"/>
			<path class="st0" d="M338.6,338.5c0,0,18.3,42.9,30.6,30.6"/>
			<path class="st0" d="M332.9,338.4c0,0,20,55.8,40.6,35.1"/>
			<circle class="st1" cx="322.6" cy="341.4" r="1.9"/>
			<g>
				<circle class="st1" cx="367.8" cy="389.2" r="1.9"/>
				<circle class="st1" cx="362.2" cy="389.7" r="1.9"/>
				<circle class="st1" cx="356.6" cy="388.6" r="1.9"/>
				<circle class="st1" cx="351.4" cy="386.1" r="1.9"/>
				<circle class="st1" cx="346.6" cy="382.4" r="1.9"/>
				<circle class="st1" cx="342.6" cy="378.4" r="1.9"/>
				<circle class="st1" cx="339.2" cy="373.9" r="1.9"/>
				<circle class="st1" cx="336.2" cy="368.8" r="1.9"/>
				<circle class="st1" cx="333.7" cy="364.3" r="1.5"/>
				<circle class="st1" cx="332" cy="360.2" r="1.2"/>
				<circle class="st1" cx="330.9" cy="356.5" r="0.9"/>
				<circle class="st1" cx="329.7" cy="353.6" r="0.7"/>
			</g>
			<circle class="st1" cx="317.7" cy="343.3" r="1.9"/>
			<circle class="st1" cx="375.9" cy="403.2" r="1.9"/>
			<circle class="st1" cx="312.9" cy="345.8" r="1.9"/>
			<circle class="st1" cx="316.5" cy="410.5" r="1.9"/>
			<circle class="st1" cx="310.1" cy="395" r="1.9"/>
			<path class="st1" d="M309.4,389.3c-0.6-0.6-1.6-0.6-2.3,0c-0.6,0.6-0.6,1.6,0,2.3c0.6,0.6,1.6,0.6,2.3,0
				C310,390.9,310,389.9,309.4,389.3z"/>
			<circle class="st1" cx="308.1" cy="348.4" r="1.9"/>
			<path class="st0" d="M380.3,380.3c0,0,7.4,24.1,15.8,15.8"/>
			<path class="st0" d="M376.4,383.3c0,0-7.9,15.6,0.3,15.4C384.9,398.6,376.4,383.3,376.4,383.3z"/>
			<path class="st0" d="M324.3,347.3c0,0,10.9,24-2.6,43.6c0,0,6.7-8.1-0.6-17.4C313.9,364.3,309.3,352.1,324.3,347.3z"/>
			<path class="st0" d="M340.4,383.4c2.5,8.2-5.9,15-11.8,19.8c-6.6,5.4-7.9,17.2-7.9,17.2"/>
			<path class="st0" d="M317.4,378.5c0,0-4.8-14.7-19.2-17.5"/>
			<circle class="st1" cx="313.3" cy="402.4" r="5.1"/>
			<path class="st0" d="M309,385.9c0,0,7-7.9-7.8-17.8"/>
		</g>
		<path class="st0" d="M335.7,402.6c0.2,0.3,5.7,8.3,17.8,10.9c0,0,7.6-8.1,8.5-19.4"/>
		<path class="st0" d="M341.5,394.6c0.4,0.4,2.5,8.1,10.7,14.7c0,0,2.1-9.8,1.3-17.6"/>
	</g>
	<g>
		<g>
			<path class="st0" d="M334.3,334.2"/>
			<path class="st0" d="M334.3,334.2"/>
			<path class="st0" d="M328.7,328.5"/>
			<path class="st0" d="M318.1,317.9"/>
			<path class="st0" d="M377.4,377.2"/>
			<path class="st0" d="M369.2,369"/>
			<path class="st0" d="M338.6,338.5"/>
			<path class="st0" d="M373.6,373.4"/>
			<path class="st1" d="M397.9,400.5c0.7,0.7,1.9,0.7,2.7,0l0,0c0,0,0,0,0,0c0,0,0,0,0,0l0,0c0.7-0.7,0.7-1.9,0-2.7
				c-0.7-0.7-1.9-0.7-2.7,0l0,0c0,0,0,0,0,0c0,0,0,0,0,0l0,0C397.2,398.6,397.2,399.8,397.9,400.5z"/>
			<path class="st0" d="M396.1,396"/>
			<path class="st0" d="M380.3,380.3"/>
		</g>
	</g>
</g>
<g>
	<g>
		<g>
			<path class="st0" d="M285.6,338.7c0,0,3.2,15.3-13.2,18.8c-16.4,3.6-22.3,11.6-22.3,11.6"/>
			<path class="st0" d="M250.1,369.2"/>
			<path class="st0" d="M250.1,346.2c0,0,8.7,15,0,15"/>
			<path class="st0" d="M256.4,346.2c0,0,1.3,10.9,5.5,9.2S256.4,346.2,256.4,346.2z"/>
			<path class="st0" d="M258.2,367.6c0,0,32.8,62.5-8.1,62.5"/>
			<path class="st0" d="M250.1,375.2c0,0,17.4,43.2,0,43.2"/>
			<path class="st0" d="M254,371.1c0,0,25.3,53.5-3.9,53.5"/>
			<path class="st1" d="M261.5,366c0-1.1,0.9-1.9,1.9-1.9c1,0,1.9,0.9,1.9,1.9c0,1-0.9,1.9-1.9,1.9C262.3,367.9,261.5,367,261.5,366
				z"/>
			<g>
				<path class="st1" d="M263.4,431.7c0-1,0.9-1.9,1.9-1.9c1,0,1.9,0.9,1.9,1.9c0,1.1-0.9,1.9-1.9,1.9
					C264.2,433.6,263.4,432.8,263.4,431.7z"/>
				<path class="st1" d="M267.7,428.1c0-1.1,0.9-1.9,1.9-1.9c1.1,0,1.9,0.9,1.9,1.9c0,1-0.9,1.9-1.9,1.9
					C268.6,430,267.7,429.2,267.7,428.1z"/>
				<path class="st1" d="M270.9,423.4c0-1.1,0.9-1.9,1.9-1.9c1.1,0,1.9,0.9,1.9,1.9c0,1-0.9,1.9-1.9,1.9
					C271.7,425.3,270.9,424.4,270.9,423.4z"/>
				<path class="st1" d="M272.8,417.9c0-1.1,0.9-1.9,1.9-1.9c1,0,1.9,0.9,1.9,1.9c0,1-0.9,1.9-1.9,1.9
					C273.6,419.8,272.8,418.9,272.8,417.9z"/>
				<path class="st1" d="M273.6,411.9c0-1,0.9-1.9,1.9-1.9c1.1,0,1.9,0.9,1.9,1.9c0,1.1-0.9,1.9-1.9,1.9
					C274.4,413.9,273.6,413,273.6,411.9z"/>
				<path class="st1" d="M273.6,406.3c0-1,0.9-1.9,1.9-1.9c1.1,0,1.9,0.9,1.9,1.9c0,1-0.9,1.9-1.9,1.9
					C274.4,408.2,273.6,407.3,273.6,406.3z"/>
				<path class="st1" d="M272.8,400.6c0-1,0.9-1.9,1.9-1.9c1,0,1.9,0.9,1.9,1.9c0,1.1-0.9,1.9-1.9,1.9
					C273.6,402.5,272.8,401.7,272.8,400.6z"/>
				<path class="st1" d="M271.3,395c0-1,0.9-1.9,1.9-1.9c1.1,0,1.9,0.9,1.9,1.9c0,1-0.9,1.9-1.9,1.9
					C272.2,396.9,271.3,396,271.3,395z"/>
				<path class="st1" d="M270.3,390c0-0.8,0.7-1.5,1.5-1.5c0.8,0,1.5,0.7,1.5,1.5c0,0.8-0.7,1.5-1.5,1.5
					C271,391.5,270.3,390.8,270.3,390z"/>
				<path class="st1" d="M268.8,385.9c0-0.7,0.6-1.2,1.2-1.2c0.7,0,1.2,0.6,1.2,1.2c0,0.7-0.6,1.2-1.2,1.2
					C269.4,387.1,268.8,386.5,268.8,385.9z"/>
				<path class="st1" d="M267.3,382.5c0-0.5,0.4-0.9,0.9-0.9s0.9,0.4,0.9,0.9c0,0.5-0.4,0.9-0.9,0.9S267.3,383,267.3,382.5z"/>
				<path class="st1" d="M266.4,379.7c0-0.4,0.3-0.7,0.7-0.7c0.4,0,0.7,0.3,0.7,0.7c0,0.4-0.3,0.7-0.7,0.7
					C266.7,380.3,266.4,380,266.4,379.7z"/>
			</g>
			<path class="st1" d="M266.4,363.8c0-1,0.9-1.9,1.9-1.9c1.1,0,1.9,0.9,1.9,1.9s-0.9,1.9-1.9,1.9
				C267.2,365.7,266.4,364.9,266.4,363.8z"/>
			<path class="st1" d="M267.6,447.3c0-1,0.9-1.9,1.9-1.9c1,0,1.9,0.9,1.9,1.9s-0.9,1.9-1.9,1.9
				C268.4,449.2,267.6,448.4,267.6,447.3z"/>
			<path class="st1" d="M271.5,362.2c0-1.1,0.9-1.9,1.9-1.9c1,0,1.9,0.9,1.9,1.9c0,1-0.9,1.9-1.9,1.9
				C272.4,364.1,271.5,363.2,271.5,362.2z"/>
			<path class="st1" d="M314.6,410.5c0-1,0.9-1.9,1.9-1.9c1,0,1.9,0.9,1.9,1.9c0,1-0.9,1.9-1.9,1.9
				C315.5,412.4,314.6,411.6,314.6,410.5z"/>
			<path class="st1" d="M308.2,395.1c0-1.1,0.9-1.9,1.9-1.9c1,0,1.9,0.9,1.9,1.9c0,1-0.9,1.9-1.9,1.9
				C309.1,397,308.2,396.1,308.2,395.1z"/>
			<path class="st1" d="M306.7,390.5c0-0.9,0.7-1.6,1.6-1.6c0.9,0,1.6,0.7,1.6,1.6c0,0.9-0.7,1.6-1.6,1.6
				C307.4,392.1,306.7,391.4,306.7,390.5z"/>
			<path class="st1" d="M276.7,360.7c0-1.1,0.9-1.9,1.9-1.9c1.1,0,1.9,0.9,1.9,1.9c0,1-0.9,1.9-1.9,1.9
				C277.6,362.6,276.7,361.7,276.7,360.7z"/>
			<path class="st0" d="M250.1,434.3c0,0,11.8,22.3,0,22.3"/>
			<path class="st0" d="M255,433.6c0,0,16.6,5.4,10.7,11.1C259.8,450.4,255,433.6,255,433.6z"/>
			<path class="st0" d="M266.4,371.4c0,0,9.3,24.7,32.6,29c0,0-10.5-1-11.8-12.7C285.8,376,280.4,364.2,266.4,371.4z"/>
			<path class="st0" d="M280.5,408.2c4,7.6,14.7,6.4,22.3,5.7c8.5-0.9,17.8,6.6,17.8,6.6"/>
			<path class="st0" d="M293.3,388.5c0,0-7-13.8,1.2-26"/>
			<path class="st1" d="M308,402.5c0-2.8,2.3-5.1,5.1-5.1c2.8,0,5.1,2.3,5.1,5.1c0,2.8-2.3,5.1-5.1,5.1
				C310.3,407.7,308,405.4,308,402.5z"/>
			<path class="st0" d="M304.5,387.8c0,0-10.5-0.6-7.1-18.1"/>
		</g>
		<path class="st0" d="M297.4,418.5c0.1,0.3,1.8,9.9-4.9,20.3c0,0-11.1-0.3-19.8-7.7"/>
		<path class="st0" d="M287.6,416.9c0,0.6,3.9,7.5,2.8,17.9c0,0-8.4-5.5-13.4-11.5"/>
	</g>
	<g>
		<g>
			<path class="st0" d="M250,369.2"/>
			<path class="st0" d="M250,369.2"/>
			<path class="st0" d="M250,361.2"/>
			<path class="st0" d="M250,346.2"/>
			<path class="st0" d="M250,430"/>
			<path class="st0" d="M250,418.5"/>
			<path class="st0" d="M250,375.2"/>
			<path class="st0" d="M250,424.7"/>
			<path class="st0" d="M250.1,456.6"/>
			<path class="st0" d="M250.1,434.3"/>
		</g>
	</g>
</g>
<g>
	<g>
		<g>
			<path class="st0" d="M214.6,338.7c0,0-3.2,15.3,13.2,18.8c16.4,3.6,22.3,11.6,22.3,11.6"/>
			<path class="st0" d="M250,369.2"/>
			<path class="st0" d="M250,346.2c0,0-8.7,15,0,15"/>
			<path class="st0" d="M243.8,346.2c0,0-1.3,10.9-5.5,9.2C234,353.6,243.8,346.2,243.8,346.2z"/>
			<path class="st0" d="M241.9,367.6c0,0-32.8,62.5,8.1,62.5"/>
			<path class="st0" d="M250,375.2c0,0-17.4,43.2,0,43.2"/>
			<path class="st0" d="M246.1,371.1c0,0-25.3,53.5,3.9,53.5"/>
			<path class="st1" d="M238.7,366c0-1.1-0.9-1.9-1.9-1.9c-1,0-1.9,0.9-1.9,1.9c0,1,0.9,1.9,1.9,1.9
				C237.8,367.9,238.7,367,238.7,366z"/>
			<g>
				<path class="st1" d="M236.8,431.7c0-1-0.9-1.9-1.9-1.9c-1.1,0-1.9,0.9-1.9,1.9c0,1.1,0.9,1.9,1.9,1.9
					C235.9,433.6,236.8,432.8,236.8,431.7z"/>
				<path class="st1" d="M232.4,428.1c0-1.1-0.9-1.9-1.9-1.9c-1,0-1.9,0.9-1.9,1.9c0,1,0.9,1.9,1.9,1.9
					C231.6,430,232.4,429.2,232.4,428.1z"/>
				<path class="st1" d="M229.3,423.4c0-1.1-0.9-1.9-1.9-1.9c-1.1,0-1.9,0.9-1.9,1.9c0,1,0.9,1.9,1.9,1.9
					C228.4,425.3,229.3,424.4,229.3,423.4z"/>
				<path class="st1" d="M227.4,417.9c0-1.1-0.9-1.9-1.9-1.9c-1,0-1.9,0.9-1.9,1.9c0,1,0.9,1.9,1.9,1.9
					C226.5,419.8,227.4,418.9,227.4,417.9z"/>
				<path class="st1" d="M226.6,411.9c0-1-0.9-1.9-1.9-1.9s-1.9,0.9-1.9,1.9c0,1.1,0.9,1.9,1.9,1.9S226.6,413,226.6,411.9z"/>
				<path class="st1" d="M226.6,406.3c0-1-0.9-1.9-1.9-1.9s-1.9,0.9-1.9,1.9c0,1,0.9,1.9,1.9,1.9S226.6,407.3,226.6,406.3z"/>
				<path class="st1" d="M227.4,400.6c0-1-0.9-1.9-1.9-1.9c-1,0-1.9,0.9-1.9,1.9c0,1.1,0.9,1.9,1.9,1.9
					C226.5,402.5,227.4,401.7,227.4,400.6z"/>
				<path class="st1" d="M228.8,395c0-1-0.9-1.9-1.9-1.9s-1.9,0.9-1.9,1.9c0,1,0.9,1.9,1.9,1.9S228.8,396,228.8,395z"/>
				<path class="st1" d="M229.8,390c0-0.8-0.7-1.5-1.5-1.5c-0.8,0-1.5,0.7-1.5,1.5c0,0.8,0.7,1.5,1.5,1.5
					C229.2,391.5,229.8,390.8,229.8,390z"/>
				<path class="st1" d="M231.3,385.9c0-0.7-0.6-1.2-1.2-1.2c-0.7,0-1.2,0.6-1.2,1.2c0,0.7,0.6,1.2,1.2,1.2
					C230.8,387.1,231.3,386.5,231.3,385.9z"/>
				<path class="st1" d="M232.8,382.5c0-0.5-0.4-0.9-0.9-0.9c-0.5,0-0.9,0.4-0.9,0.9c0,0.5,0.4,0.9,0.9,0.9
					C232.4,383.4,232.8,383,232.8,382.5z"/>
				<path class="st1" d="M233.8,379.7c0-0.4-0.3-0.7-0.7-0.7c-0.4,0-0.7,0.3-0.7,0.7c0,0.4,0.3,0.7,0.7,0.7
					C233.5,380.3,233.8,380,233.8,379.7z"/>
			</g>
			<path class="st1" d="M233.8,363.8c0-1-0.9-1.9-1.9-1.9c-1,0-1.9,0.9-1.9,1.9s0.9,1.9,1.9,1.9
				C232.9,365.7,233.8,364.9,233.8,363.8z"/>
			<path class="st1" d="M232.6,447.3c0-1-0.9-1.9-1.9-1.9s-1.9,0.9-1.9,1.9s0.9,1.9,1.9,1.9S232.6,448.4,232.6,447.3z"/>
			<path class="st1" d="M228.6,362.2c0-1.1-0.9-1.9-1.9-1.9s-1.9,0.9-1.9,1.9c0,1,0.9,1.9,1.9,1.9S228.6,363.2,228.6,362.2z"/>
			<path class="st1" d="M185.5,410.5c0-1-0.9-1.9-1.9-1.9c-1,0-1.9,0.9-1.9,1.9c0,1,0.9,1.9,1.9,1.9
				C184.6,412.4,185.5,411.6,185.5,410.5z"/>
			<path class="st1" d="M191.9,395.1c0-1.1-0.9-1.9-1.9-1.9c-1,0-1.9,0.9-1.9,1.9c0,1,0.9,1.9,1.9,1.9
				C191,397,191.9,396.1,191.9,395.1z"/>
			<path class="st1" d="M193.5,390.5c0-0.9-0.7-1.6-1.6-1.6c-0.9,0-1.6,0.7-1.6,1.6c0,0.9,0.7,1.6,1.6,1.6
				C192.8,392.1,193.5,391.4,193.5,390.5z"/>
			<path class="st1" d="M223.4,360.7c0-1.1-0.9-1.9-1.9-1.9c-1,0-1.9,0.9-1.9,1.9c0,1,0.9,1.9,1.9,1.9
				C222.5,362.6,223.4,361.7,223.4,360.7z"/>
			<path class="st0" d="M250.1,434.3c0,0-11.8,22.3,0,22.3"/>
			<path class="st0" d="M245.1,433.6c0,0-16.6,5.4-10.7,11.1C240.3,450.4,245.1,433.6,245.1,433.6z"/>
			<path class="st0" d="M233.8,371.4c0,0-9.3,24.7-32.6,29c0,0,10.5-1,11.8-12.7C214.4,376,219.7,364.2,233.8,371.4z"/>
			<path class="st0" d="M219.6,408.2c-4,7.6-14.7,6.4-22.3,5.7c-8.5-0.9-17.8,6.6-17.8,6.6"/>
			<path class="st0" d="M206.8,388.5c0,0,7-13.8-1.2-26"/>
			<path class="st1" d="M192.1,402.5c0-2.8-2.3-5.1-5.1-5.1c-2.8,0-5.1,2.3-5.1,5.1c0,2.8,2.3,5.1,5.1,5.1
				C189.8,407.7,192.1,405.4,192.1,402.5z"/>
			<path class="st0" d="M195.6,387.8c0,0,10.6-0.6,7.1-18.1"/>
		</g>
		<path class="st0" d="M202.7,418.5c-0.1,0.3-1.8,9.9,4.9,20.3c0,0,11.1-0.3,19.8-7.7"/>
		<path class="st0" d="M212.5,416.9c0,0.6-3.9,7.5-2.8,17.9c0,0,8.4-5.5,13.4-11.5"/>
	</g>
	<g>
		<g>
			<path class="st0" d="M250.1,369.2"/>
			<path class="st0" d="M250.1,369.2"/>
			<path class="st0" d="M250.1,361.2"/>
			<path class="st0" d="M250.1,346.2"/>
			<path class="st0" d="M250.1,430"/>
			<path class="st0" d="M250.1,418.5"/>
			<path class="st0" d="M250.1,375.2"/>
			<path class="st0" d="M250.1,424.7"/>
			<path class="st1" d="M248.2,461c0,1,0.8,1.9,1.9,1.9v0c0,0,0,0,0,0c0,0,0,0,0,0v0c1,0,1.9-0.9,1.9-1.9c0-1-0.8-1.9-1.9-1.9v0
				c0,0,0,0,0,0c0,0,0,0,0,0v0C249,459.1,248.2,460,248.2,461z"/>
			<path class="st0" d="M250.1,456.6"/>
			<path class="st0" d="M250.1,434.3"/>
		</g>
	</g>
</g>
<g>
	<g>
		<g>
			<path class="st0" d="M212.4,337.9c0,0-8.5,13.1-22.7,4c-14.1-9.1-24-7.5-24-7.5"/>
			<path class="st0" d="M165.8,334.3"/>
			<path class="st0" d="M182.1,318.1c0,0-4.4,16.8-10.6,10.6"/>
			<path class="st0" d="M186.5,322.5c0,0-6.8,8.6-2.6,10.4C188.1,334.6,186.5,322.5,186.5,322.5z"/>
			<path class="st0" d="M172.7,338.9c0,0-21,67.4-49.9,38.4"/>
			<path class="st0" d="M161.5,338.6c0,0-18.3,42.9-30.6,30.6"/>
			<path class="st0" d="M167.2,338.5c0,0-20,55.8-40.6,35.1"/>
			<circle class="st1" cx="177.5" cy="341.5" r="1.9"/>
			<g>
				<circle class="st1" cx="132.3" cy="389.3" r="1.9"/>
				<circle class="st1" cx="137.9" cy="389.8" r="1.9"/>
				<circle class="st1" cx="143.5" cy="388.7" r="1.9"/>
				<circle class="st1" cx="148.7" cy="386.2" r="1.9"/>
				<circle class="st1" cx="153.5" cy="382.5" r="1.9"/>
				<circle class="st1" cx="157.5" cy="378.5" r="1.9"/>
				<circle class="st1" cx="160.9" cy="373.9" r="1.9"/>
				<circle class="st1" cx="163.9" cy="368.9" r="1.9"/>
				<path class="st1" d="M165.4,363.3c0.6-0.6,1.5-0.6,2.1,0c0.6,0.6,0.6,1.5,0,2.1c-0.6,0.6-1.5,0.6-2.1,0
					C164.8,364.8,164.8,363.9,165.4,363.3z"/>
				<circle class="st1" cx="168.1" cy="360.2" r="1.2"/>
				<circle class="st1" cx="169.2" cy="356.6" r="0.9"/>
				<path class="st1" d="M169.9,353.2c0.3-0.3,0.7-0.3,1,0c0.3,0.3,0.3,0.7,0,1c-0.3,0.3-0.7,0.3-1,0
					C169.6,354,169.6,353.5,169.9,353.2z"/>
			</g>
			<circle class="st1" cx="182.4" cy="343.4" r="1.9"/>
			<circle class="st1" cx="124.2" cy="403.3" r="1.9"/>
			<circle class="st1" cx="187.2" cy="345.9" r="1.9"/>
			<circle class="st1" cx="183.5" cy="410.6" r="1.9"/>
			<circle class="st1" cx="190" cy="395.1" r="1.9"/>
			<path class="st1" d="M190.7,389.4c0.6-0.6,1.6-0.6,2.3,0c0.6,0.6,0.6,1.6,0,2.3c-0.6,0.6-1.6,0.6-2.3,0
				C190.1,391,190.1,390,190.7,389.4z"/>
			<circle class="st1" cx="192" cy="348.5" r="1.9"/>
			<path class="st0" d="M119.7,380.3c0,0-7.4,24.1-15.8,15.8"/>
			<path class="st0" d="M123.7,383.4c0,0,7.9,15.6-0.3,15.4C115.2,398.7,123.7,383.4,123.7,383.4z"/>
			<path class="st0" d="M175.7,347.4c0,0-10.9,24,2.6,43.6c0,0-6.7-8.1,0.6-17.4C186.2,364.4,190.8,352.2,175.7,347.4z"/>
			<path class="st0" d="M159.7,383.4c-2.5,8.2,5.9,15,11.8,19.8c6.6,5.4,7.9,17.2,7.9,17.2"/>
			<path class="st0" d="M182.7,378.6c0,0,4.8-14.7,19.2-17.5"/>
			<circle class="st1" cx="186.8" cy="402.5" r="5.1"/>
			<path class="st0" d="M191.1,386c0,0-7-7.9,7.8-17.8"/>
		</g>
		<path class="st0" d="M164.4,402.7c-0.2,0.3-5.7,8.3-17.8,10.9c0,0-7.6-8.1-8.5-19.4"/>
		<path class="st0" d="M158.6,394.7c-0.4,0.4-2.5,8.1-10.7,14.7c0,0-2.1-9.8-1.3-17.6"/>
	</g>
	<g>
		<g>
			<path class="st0" d="M165.7,334.3"/>
			<path class="st0" d="M165.7,334.3"/>
			<path class="st0" d="M171.4,328.6"/>
			<path class="st0" d="M182,318"/>
			<path class="st0" d="M122.7,377.3"/>
			<path class="st0" d="M130.9,369.1"/>
			<path class="st0" d="M161.5,338.6"/>
			<path class="st0" d="M126.5,373.5"/>
			<path class="st0" d="M104,396.1"/>
			<path class="st0" d="M119.7,380.3"/>
		</g>
	</g>
</g>
<g>
	<g>
		<g>
			<path class="st0" d="M162.2,287.6c0,0-13.1,8.5-4,22.7c9.1,14.1,7.5,24,7.5,24"/>
			<path class="st0" d="M165.7,334.3"/>
			<path class="st0" d="M182,318c0,0-16.8,4.4-10.6,10.6"/>
			<path class="st0" d="M177.6,313.6c0,0-8.6,6.8-10.4,2.6C165.4,312,177.6,313.6,177.6,313.6z"/>
			<path class="st0" d="M161.2,327.4c0,0-67.4,21-38.4,49.9"/>
			<path class="st0" d="M161.5,338.6c0,0-42.9,18.3-30.6,30.6"/>
			<path class="st0" d="M161.6,332.9c0,0-55.8,20-35.1,40.6"/>
			<circle class="st1" cx="158.6" cy="322.6" r="1.9"/>
			<g>
				<circle class="st1" cx="110.8" cy="367.8" r="1.9"/>
				<circle class="st1" cx="110.3" cy="362.2" r="1.9"/>
				<circle class="st1" cx="111.4" cy="356.6" r="1.9"/>
				<circle class="st1" cx="113.9" cy="351.4" r="1.9"/>
				<circle class="st1" cx="117.6" cy="346.6" r="1.9"/>
				<circle class="st1" cx="121.6" cy="342.6" r="1.9"/>
				<circle class="st1" cx="126.1" cy="339.2" r="1.9"/>
				<circle class="st1" cx="131.2" cy="336.2" r="1.9"/>
				<circle class="st1" cx="135.7" cy="333.7" r="1.5"/>
				<circle class="st1" cx="139.8" cy="332" r="1.2"/>
				<circle class="st1" cx="143.5" cy="330.9" r="0.9"/>
				<circle class="st1" cx="146.4" cy="329.7" r="0.7"/>
			</g>
			<circle class="st1" cx="156.7" cy="317.7" r="1.9"/>
			<circle class="st1" cx="96.8" cy="375.9" r="1.9"/>
			<circle class="st1" cx="154.2" cy="312.9" r="1.9"/>
			<circle class="st1" cx="89.5" cy="316.5" r="1.9"/>
			<circle class="st1" cx="105" cy="310.1" r="1.9"/>
			<path class="st1" d="M110.7,309.4c0.6-0.6,0.6-1.6,0-2.3c-0.6-0.6-1.6-0.6-2.3,0c-0.6,0.6-0.6,1.6,0,2.3
				C109.1,310,110.1,310,110.7,309.4z"/>
			<circle class="st1" cx="151.6" cy="308.1" r="1.9"/>
			<path class="st0" d="M119.7,380.3c0,0-24.1,7.4-15.8,15.8"/>
			<path class="st0" d="M116.7,376.4c0,0-15.6-7.9-15.4,0.3C101.4,384.9,116.7,376.4,116.7,376.4z"/>
			<path class="st0" d="M152.7,324.3c0,0-24,10.9-43.6-2.6c0,0,8.1,6.7,17.4-0.6C135.7,313.9,147.9,309.3,152.7,324.3z"/>
			<path class="st0" d="M116.6,340.4c-8.2,2.5-15-5.9-19.8-11.8c-5.4-6.6-17.2-7.9-17.2-7.9"/>
			<path class="st0" d="M121.5,317.4c0,0,14.7-4.8,17.5-19.2"/>
			<circle class="st1" cx="97.6" cy="313.3" r="5.1"/>
			<path class="st0" d="M114.1,309c0,0,7.9,7,17.8-7.8"/>
		</g>
		<path class="st0" d="M97.4,335.7c-0.3,0.2-8.3,5.7-10.9,17.8c0,0,8.1,7.6,19.4,8.5"/>
		<path class="st0" d="M105.4,341.5c-0.4,0.4-8.1,2.5-14.7,10.7c0,0,9.8,2.1,17.6,1.3"/>
	</g>
	<g>
		<g>
			<path class="st0" d="M165.8,334.3"/>
			<path class="st0" d="M165.8,334.3"/>
			<path class="st0" d="M171.5,328.7"/>
			<path class="st0" d="M182.1,318.1"/>
			<path class="st0" d="M122.8,377.4"/>
			<path class="st0" d="M131,369.2"/>
			<path class="st0" d="M161.5,338.6"/>
			<path class="st0" d="M126.6,373.6"/>
			<path class="st1" d="M99.5,397.9c-0.7,0.7-0.7,1.9,0,2.7l0,0c0,0,0,0,0,0c0,0,0,0,0,0l0,0c0.7,0.7,1.9,0.7,2.7,0
				c0.7-0.7,0.7-1.9,0-2.7l0,0c0,0,0,0,0,0c0,0,0,0,0,0l0,0C101.4,397.2,100.2,397.2,99.5,397.9z"/>
			<path class="st0" d="M104,396.1"/>
			<path class="st0" d="M119.7,380.3"/>
		</g>
	</g>
</g>
<g>
	<g>
		<g>
			<path class="st0" d="M161.3,285.6c0,0-15.3,3.2-18.8-13.2c-3.6-16.4-11.6-22.3-11.6-22.3"/>
			<path class="st0" d="M130.8,250.1"/>
			<path class="st0" d="M153.8,250.1c0,0-15,8.7-15,0"/>
			<path class="st0" d="M153.8,256.4c0,0-10.9,1.3-9.2,5.5C146.4,266.1,153.8,256.4,153.8,256.4z"/>
			<path class="st0" d="M132.4,258.2c0,0-62.5,32.8-62.5-8.1"/>
			<path class="st0" d="M124.8,250.1c0,0-43.2,17.4-43.2,0"/>
			<path class="st0" d="M128.9,254c0,0-53.5,25.3-53.5-3.9"/>
			<path class="st1" d="M134,261.5c1,0,1.9,0.9,1.9,1.9c0,1-0.9,1.9-1.9,1.9c-1.1,0-1.9-0.9-1.9-1.9
				C132.1,262.3,133,261.5,134,261.5z"/>
			<g>
				<path class="st1" d="M68.3,263.4c1.1,0,1.9,0.9,1.9,1.9c0,1-0.9,1.9-1.9,1.9c-1,0-1.9-0.9-1.9-1.9
					C66.4,264.2,67.2,263.4,68.3,263.4z"/>
				<path class="st1" d="M71.9,267.7c1.1,0,1.9,0.9,1.9,1.9c0,1-0.9,1.9-1.9,1.9c-1,0-1.9-0.9-1.9-1.9
					C70,268.6,70.8,267.7,71.9,267.7z"/>
				<path class="st1" d="M76.6,270.9c1.1,0,1.9,0.9,1.9,1.9c0,1.1-0.9,1.9-1.9,1.9c-1,0-1.9-0.9-1.9-1.9
					C74.7,271.7,75.6,270.9,76.6,270.9z"/>
				<path class="st1" d="M82.1,272.8c1.1,0,1.9,0.9,1.9,1.9s-0.9,1.9-1.9,1.9s-1.9-0.9-1.9-1.9S81.1,272.8,82.1,272.8z"/>
				<path class="st1" d="M88.1,273.6c1,0,1.9,0.9,1.9,1.9c0,1-0.9,1.9-1.9,1.9c-1.1,0-1.9-0.9-1.9-1.9
					C86.1,274.4,87,273.6,88.1,273.6z"/>
				<path class="st1" d="M93.7,273.6c1.1,0,1.9,0.9,1.9,1.9c0,1-0.9,1.9-1.9,1.9c-1,0-1.9-0.9-1.9-1.9
					C91.8,274.4,92.7,273.6,93.7,273.6z"/>
				<path class="st1" d="M99.4,272.8c1.1,0,1.9,0.9,1.9,1.9s-0.9,1.9-1.9,1.9c-1,0-1.9-0.9-1.9-1.9S98.3,272.8,99.4,272.8z"/>
				<path class="st1" d="M105,271.3c1,0,1.9,0.9,1.9,1.9c0,1-0.9,1.9-1.9,1.9c-1,0-1.9-0.9-1.9-1.9C103.1,272.2,104,271.3,105,271.3
					z"/>
				<path class="st1" d="M110,270.3c0.8,0,1.5,0.7,1.5,1.5c0,0.8-0.7,1.5-1.5,1.5c-0.8,0-1.5-0.7-1.5-1.5
					C108.5,271,109.2,270.3,110,270.3z"/>
				<path class="st1" d="M114.1,268.8c0.7,0,1.2,0.6,1.2,1.2c0,0.7-0.6,1.2-1.2,1.2c-0.7,0-1.2-0.6-1.2-1.2
					C112.9,269.4,113.5,268.8,114.1,268.8z"/>
				<path class="st1" d="M117.5,267.3c0.5,0,0.9,0.4,0.9,0.9s-0.4,0.9-0.9,0.9s-0.9-0.4-0.9-0.9S117,267.3,117.5,267.3z"/>
				<path class="st1" d="M120.3,266.4c0.4,0,0.7,0.3,0.7,0.7c0,0.4-0.3,0.7-0.7,0.7c-0.4,0-0.7-0.3-0.7-0.7
					C119.7,266.7,120,266.4,120.3,266.4z"/>
			</g>
			<path class="st1" d="M136.2,266.4c1.1,0,1.9,0.9,1.9,1.9c0,1-0.9,1.9-1.9,1.9s-1.9-0.9-1.9-1.9
				C134.3,267.2,135.1,266.4,136.2,266.4z"/>
			<path class="st1" d="M52.7,267.6c1,0,1.9,0.9,1.9,1.9c0,1-0.9,1.9-1.9,1.9c-1,0-1.9-0.9-1.9-1.9
				C50.8,268.4,51.6,267.6,52.7,267.6z"/>
			<path class="st1" d="M137.8,271.5c1.1,0,1.9,0.9,1.9,1.9s-0.9,1.9-1.9,1.9c-1,0-1.9-0.9-1.9-1.9S136.8,271.5,137.8,271.5z"/>
			<path class="st1" d="M89.5,314.6c1,0,1.9,0.9,1.9,1.9s-0.9,1.9-1.9,1.9c-1,0-1.9-0.9-1.9-1.9S88.4,314.6,89.5,314.6z"/>
			<path class="st1" d="M104.9,308.2c1.1,0,1.9,0.9,1.9,1.9s-0.9,1.9-1.9,1.9s-1.9-0.9-1.9-1.9S103.9,308.2,104.9,308.2z"/>
			<path class="st1" d="M109.5,306.7c0.9,0,1.6,0.7,1.6,1.6c0,0.9-0.7,1.6-1.6,1.6c-0.9,0-1.6-0.7-1.6-1.6
				C107.9,307.4,108.6,306.7,109.5,306.7z"/>
			<path class="st1" d="M139.3,276.7c1.1,0,1.9,0.9,1.9,1.9c0,1-0.9,1.9-1.9,1.9s-1.9-0.9-1.9-1.9
				C137.4,277.6,138.3,276.7,139.3,276.7z"/>
			<path class="st0" d="M65.7,250.1c0,0-22.3,11.8-22.3,0"/>
			<path class="st0" d="M66.4,255c0,0-5.4,16.6-11.1,10.7S66.4,255,66.4,255z"/>
			<path class="st0" d="M128.6,266.4c0,0-24.7,9.3-29,32.6c0,0,1-10.5,12.7-11.8C124,285.8,135.8,280.4,128.6,266.4z"/>
			<path class="st0" d="M91.8,280.5c-7.6,4-6.4,14.7-5.7,22.3c0.9,8.5-6.6,17.8-6.6,17.8"/>
			<path class="st0" d="M111.5,293.3c0,0,13.8-7,26,1.2"/>
			<path class="st1" d="M97.5,308c2.8,0,5.1,2.3,5.1,5.1c0,2.8-2.3,5.1-5.1,5.1c-2.8,0-5.1-2.3-5.1-5.1
				C92.3,310.3,94.6,308,97.5,308z"/>
			<path class="st0" d="M112.2,304.5c0,0,0.6-10.5,18.1-7.1"/>
		</g>
		<path class="st0" d="M81.5,297.4c-0.3,0.1-9.9,1.8-20.3-4.9c0,0,0.3-11.1,7.7-19.8"/>
		<path class="st0" d="M83.1,287.6c-0.6,0-7.5,3.9-17.9,2.8c0,0,5.5-8.4,11.5-13.4"/>
	</g>
	<g>
		<g>
			<path class="st0" d="M130.8,250"/>
			<path class="st0" d="M130.8,250"/>
			<path class="st0" d="M138.8,250"/>
			<path class="st0" d="M153.8,250"/>
			<path class="st0" d="M70,250"/>
			<path class="st0" d="M81.5,250"/>
			<path class="st0" d="M124.8,250"/>
			<path class="st0" d="M75.3,250"/>
			<path class="st0" d="M43.4,250.1"/>
			<path class="st0" d="M65.7,250.1"/>
		</g>
	</g>
</g>
<g>
	<g>
		<g>
			<path class="st0" d="M161.3,214.6c0,0-15.3-3.2-18.8,13.2c-3.6,16.4-11.6,22.3-11.6,22.3"/>
			<path class="st0" d="M130.8,250"/>
			<path class="st0" d="M153.8,250c0,0-15-8.7-15,0"/>
			<path class="st0" d="M153.8,243.8c0,0-10.9-1.3-9.2-5.5C146.4,234,153.8,243.8,153.8,243.8z"/>
			<path class="st0" d="M132.4,241.9c0,0-62.5-32.8-62.5,8.1"/>
			<path class="st0" d="M124.8,250c0,0-43.2-17.4-43.2,0"/>
			<path class="st0" d="M128.9,246.1c0,0-53.5-25.3-53.5,3.9"/>
			<path class="st1" d="M134,238.7c1,0,1.9-0.9,1.9-1.9c0-1-0.9-1.9-1.9-1.9c-1.1,0-1.9,0.9-1.9,1.9
				C132.1,237.8,133,238.7,134,238.7z"/>
			<g>
				<path class="st1" d="M68.3,236.8c1.1,0,1.9-0.9,1.9-1.9s-0.9-1.9-1.9-1.9c-1,0-1.9,0.9-1.9,1.9S67.2,236.8,68.3,236.8z"/>
				<path class="st1" d="M71.9,232.4c1.1,0,1.9-0.9,1.9-1.9c0-1-0.9-1.9-1.9-1.9c-1,0-1.9,0.9-1.9,1.9
					C70,231.6,70.8,232.4,71.9,232.4z"/>
				<path class="st1" d="M76.6,229.3c1.1,0,1.9-0.9,1.9-1.9s-0.9-1.9-1.9-1.9c-1,0-1.9,0.9-1.9,1.9S75.6,229.3,76.6,229.3z"/>
				<path class="st1" d="M82.1,227.4c1.1,0,1.9-0.9,1.9-1.9c0-1-0.9-1.9-1.9-1.9s-1.9,0.9-1.9,1.9C80.2,226.5,81.1,227.4,82.1,227.4
					z"/>
				<path class="st1" d="M88.1,226.6c1,0,1.9-0.9,1.9-1.9s-0.9-1.9-1.9-1.9c-1.1,0-1.9,0.9-1.9,1.9S87,226.6,88.1,226.6z"/>
				<path class="st1" d="M93.7,226.6c1.1,0,1.9-0.9,1.9-1.9s-0.9-1.9-1.9-1.9c-1,0-1.9,0.9-1.9,1.9S92.7,226.6,93.7,226.6z"/>
				<path class="st1" d="M99.4,227.4c1.1,0,1.9-0.9,1.9-1.9c0-1-0.9-1.9-1.9-1.9c-1,0-1.9,0.9-1.9,1.9
					C97.5,226.5,98.3,227.4,99.4,227.4z"/>
				<path class="st1" d="M105,228.8c1,0,1.9-0.9,1.9-1.9c0-1.1-0.9-1.9-1.9-1.9c-1,0-1.9,0.9-1.9,1.9
					C103.1,227.9,104,228.8,105,228.8z"/>
				<path class="st1" d="M110,229.8c0.8,0,1.5-0.7,1.5-1.5c0-0.8-0.7-1.5-1.5-1.5c-0.8,0-1.5,0.7-1.5,1.5
					C108.5,229.2,109.2,229.8,110,229.8z"/>
				<path class="st1" d="M114.1,231.3c0.7,0,1.2-0.6,1.2-1.2c0-0.7-0.6-1.2-1.2-1.2c-0.7,0-1.2,0.6-1.2,1.2
					C112.9,230.8,113.5,231.3,114.1,231.3z"/>
				<path class="st1" d="M117.5,232.8c0.5,0,0.9-0.4,0.9-0.9c0-0.5-0.4-0.9-0.9-0.9s-0.9,0.4-0.9,0.9
					C116.6,232.4,117,232.8,117.5,232.8z"/>
				<path class="st1" d="M120.3,233.8c0.4,0,0.7-0.3,0.7-0.7c0-0.4-0.3-0.7-0.7-0.7c-0.4,0-0.7,0.3-0.7,0.7
					C119.7,233.5,120,233.8,120.3,233.8z"/>
			</g>
			<path class="st1" d="M136.2,233.8c1.1,0,1.9-0.9,1.9-1.9c0-1-0.9-1.9-1.9-1.9s-1.9,0.9-1.9,1.9
				C134.3,232.9,135.1,233.8,136.2,233.8z"/>
			<path class="st1" d="M52.7,232.6c1,0,1.9-0.9,1.9-1.9s-0.9-1.9-1.9-1.9c-1,0-1.9,0.9-1.9,1.9S51.6,232.6,52.7,232.6z"/>
			<path class="st1" d="M137.8,228.6c1.1,0,1.9-0.9,1.9-1.9c0-1.1-0.9-1.9-1.9-1.9c-1,0-1.9,0.9-1.9,1.9
				C135.9,227.8,136.8,228.6,137.8,228.6z"/>
			<path class="st1" d="M89.5,185.5c1,0,1.9-0.9,1.9-1.9c0-1.1-0.9-1.9-1.9-1.9c-1,0-1.9,0.9-1.9,1.9
				C87.6,184.6,88.4,185.5,89.5,185.5z"/>
			<path class="st1" d="M104.9,191.9c1.1,0,1.9-0.9,1.9-1.9c0-1-0.9-1.9-1.9-1.9s-1.9,0.9-1.9,1.9C103,191,103.9,191.9,104.9,191.9z
				"/>
			<path class="st1" d="M109.5,193.5c0.9,0,1.6-0.7,1.6-1.6c0-0.9-0.7-1.6-1.6-1.6c-0.9,0-1.6,0.7-1.6,1.6
				C107.9,192.8,108.6,193.5,109.5,193.5z"/>
			<path class="st1" d="M139.3,223.4c1.1,0,1.9-0.9,1.9-1.9c0-1.1-0.9-1.9-1.9-1.9s-1.9,0.9-1.9,1.9
				C137.4,222.5,138.3,223.4,139.3,223.4z"/>
			<path class="st0" d="M65.7,250.1c0,0-22.3-11.8-22.3,0"/>
			<path class="st0" d="M66.4,245.1c0,0-5.4-16.6-11.1-10.7C49.6,240.3,66.4,245.1,66.4,245.1z"/>
			<path class="st0" d="M128.6,233.8c0,0-24.7-9.3-29-32.6c0,0,1,10.5,12.7,11.8C124,214.4,135.8,219.7,128.6,233.8z"/>
			<path class="st0" d="M91.8,219.6c-7.6-4-6.4-14.7-5.7-22.3c0.9-8.5-6.6-17.8-6.6-17.8"/>
			<path class="st0" d="M111.5,206.8c0,0,13.8,7,26-1.2"/>
			<path class="st1" d="M97.5,192.1c2.8,0,5.1-2.3,5.1-5.1c0-2.8-2.3-5.1-5.1-5.1c-2.8,0-5.1,2.3-5.1,5.1
				C92.3,189.8,94.6,192.1,97.5,192.1z"/>
			<path class="st0" d="M112.2,195.6c0,0,0.6,10.5,18.1,7.1"/>
		</g>
		<path class="st0" d="M81.5,202.7c-0.3-0.1-9.9-1.8-20.3,4.9c0,0,0.3,11.1,7.7,19.8"/>
		<path class="st0" d="M83.1,212.5c-0.6,0-7.5-3.9-17.9-2.8c0,0,5.5,8.4,11.5,13.4"/>
	</g>
	<g>
		<g>
			<path class="st0" d="M130.8,250.1"/>
			<path class="st0" d="M130.8,250.1"/>
			<path class="st0" d="M138.8,250.1"/>
			<path class="st0" d="M153.8,250.1"/>
			<path class="st0" d="M70,250.1"/>
			<path class="st0" d="M81.5,250.1"/>
			<path class="st0" d="M124.8,250.1"/>
			<path class="st0" d="M75.3,250.1"/>
			<path class="st1" d="M39,248.2c-1,0-1.9,0.8-1.9,1.9h0c0,0,0,0,0,0c0,0,0,0,0,0h0c0,1,0.9,1.9,1.9,1.9c1,0,1.9-0.8,1.9-1.9h0
				c0,0,0,0,0,0c0,0,0,0,0,0h0C40.9,249,40,248.2,39,248.2z"/>
			<path class="st0" d="M43.4,250.1"/>
			<path class="st0" d="M65.7,250.1"/>
		</g>
	</g>
</g>
<g>
	<g>
		<g>
			<path class="st0" d="M162.1,212.4c0,0-13.1-8.5-4-22.7c9.1-14.1,7.5-24,7.5-24"/>
			<path class="st0" d="M165.7,165.8"/>
			<path class="st0" d="M181.9,182.1c0,0-16.8-4.4-10.6-10.6"/>
			<path class="st0" d="M177.5,186.5c0,0-8.6-6.8-10.4-2.6S177.5,186.5,177.5,186.5z"/>
			<path class="st0" d="M161.1,172.7c0,0-67.4-21-38.4-49.9"/>
			<path class="st0" d="M161.4,161.5c0,0-42.9-18.3-30.6-30.6"/>
			<path class="st0" d="M161.5,167.2c0,0-55.8-20-35.1-40.6"/>
			<circle class="st1" cx="158.5" cy="177.5" r="1.9"/>
			<g>
				<circle class="st1" cx="110.7" cy="132.3" r="1.9"/>
				<circle class="st1" cx="110.2" cy="137.9" r="1.9"/>
				<circle class="st1" cx="111.3" cy="143.5" r="1.9"/>
				<circle class="st1" cx="113.8" cy="148.7" r="1.9"/>
				<circle class="st1" cx="117.5" cy="153.5" r="1.9"/>
				<circle class="st1" cx="121.5" cy="157.5" r="1.9"/>
				<circle class="st1" cx="126.1" cy="160.9" r="1.9"/>
				<circle class="st1" cx="131.1" cy="163.9" r="1.9"/>
				<path class="st1" d="M136.7,165.4c0.6,0.6,0.6,1.5,0,2.1c-0.6,0.6-1.5,0.6-2.1,0c-0.6-0.6-0.6-1.5,0-2.1
					C135.2,164.8,136.1,164.8,136.7,165.4z"/>
				<circle class="st1" cx="139.8" cy="168.1" r="1.2"/>
				<circle class="st1" cx="143.4" cy="169.2" r="0.9"/>
				<path class="st1" d="M146.8,169.9c0.3,0.3,0.3,0.7,0,1c-0.3,0.3-0.7,0.3-1,0c-0.3-0.3-0.3-0.7,0-1
					C146,169.6,146.5,169.6,146.8,169.9z"/>
			</g>
			<circle class="st1" cx="156.6" cy="182.4" r="1.9"/>
			<circle class="st1" cx="96.7" cy="124.2" r="1.9"/>
			<circle class="st1" cx="154.1" cy="187.2" r="1.9"/>
			<circle class="st1" cx="89.4" cy="183.5" r="1.9"/>
			<circle class="st1" cx="104.9" cy="190" r="1.9"/>
			<path class="st1" d="M110.6,190.7c0.6,0.6,0.6,1.6,0,2.3c-0.6,0.6-1.6,0.6-2.3,0c-0.6-0.6-0.6-1.6,0-2.3
				C109,190.1,110,190.1,110.6,190.7z"/>
			<circle class="st1" cx="151.5" cy="192" r="1.9"/>
			<path class="st0" d="M119.7,119.7c0,0-24.1-7.4-15.8-15.8"/>
			<path class="st0" d="M116.6,123.7c0,0-15.6,7.9-15.4-0.3S116.6,123.7,116.6,123.7z"/>
			<path class="st0" d="M152.6,175.7c0,0-24-10.9-43.6,2.6c0,0,8.1-6.7,17.4,0.6C135.6,186.2,147.8,190.8,152.6,175.7z"/>
			<path class="st0" d="M116.6,159.7c-8.2-2.5-15,5.9-19.8,11.8c-5.4,6.6-17.2,7.9-17.2,7.9"/>
			<path class="st0" d="M121.4,182.7c0,0,14.7,4.8,17.5,19.2"/>
			<circle class="st1" cx="97.5" cy="186.8" r="5.1"/>
			<path class="st0" d="M114,191.1c0,0,7.9-7,17.8,7.8"/>
		</g>
		<path class="st0" d="M97.3,164.4c-0.3-0.2-8.3-5.7-10.9-17.8c0,0,8.1-7.6,19.4-8.5"/>
		<path class="st0" d="M105.3,158.6c-0.4-0.4-8.1-2.5-14.7-10.7c0,0,9.8-2.1,17.6-1.3"/>
	</g>
	<g>
		<g>
			<path class="st0" d="M165.7,165.7"/>
			<path class="st0" d="M165.7,165.7"/>
			<path class="st0" d="M171.4,171.4"/>
			<path class="st0" d="M182,182"/>
			<path class="st0" d="M122.7,122.7"/>
			<path class="st0" d="M130.9,130.9"/>
			<path class="st0" d="M161.4,161.5"/>
			<path class="st0" d="M126.5,126.5"/>
			<path class="st0" d="M103.9,104"/>
			<path class="st0" d="M119.7,119.7"/>
		</g>
	</g>
</g>
<g>
	<g>
		<g>
			<path class="st0" d="M212.4,162.2c0,0-8.5-13.1-22.7-4c-14.1,9.1-24,7.5-24,7.5"/>
			<path class="st0" d="M165.7,165.7"/>
			<path class="st0" d="M182,182c0,0-4.4-16.8-10.6-10.6"/>
			<path class="st0" d="M186.4,177.6c0,0-6.8-8.6-2.6-10.4C188,165.4,186.4,177.6,186.4,177.6z"/>
			<path class="st0" d="M172.6,161.2c0,0-21-67.4-49.9-38.4"/>
			<path class="st0" d="M161.4,161.5c0,0-18.3-42.9-30.6-30.6"/>
			<path class="st0" d="M167.1,161.6c0,0-20-55.8-40.6-35.1"/>
			<circle class="st1" cx="177.4" cy="158.6" r="1.9"/>
			<g>
				<circle class="st1" cx="132.2" cy="110.8" r="1.9"/>
				<circle class="st1" cx="137.8" cy="110.3" r="1.9"/>
				<circle class="st1" cx="143.4" cy="111.4" r="1.9"/>
				<circle class="st1" cx="148.6" cy="113.9" r="1.9"/>
				<circle class="st1" cx="153.4" cy="117.6" r="1.9"/>
				<circle class="st1" cx="157.4" cy="121.6" r="1.9"/>
				<circle class="st1" cx="160.8" cy="126.1" r="1.9"/>
				<circle class="st1" cx="163.8" cy="131.2" r="1.9"/>
				<circle class="st1" cx="166.3" cy="135.7" r="1.5"/>
				<circle class="st1" cx="168" cy="139.8" r="1.2"/>
				<circle class="st1" cx="169.1" cy="143.5" r="0.9"/>
				<circle class="st1" cx="170.3" cy="146.4" r="0.7"/>
			</g>
			<circle class="st1" cx="182.3" cy="156.7" r="1.9"/>
			<circle class="st1" cx="124.1" cy="96.8" r="1.9"/>
			<circle class="st1" cx="187.1" cy="154.2" r="1.9"/>
			<circle class="st1" cx="183.5" cy="89.5" r="1.9"/>
			<circle class="st1" cx="189.9" cy="105" r="1.9"/>
			<path class="st1" d="M190.6,110.7c0.6,0.6,1.6,0.6,2.3,0c0.6-0.6,0.6-1.6,0-2.3c-0.6-0.6-1.6-0.6-2.3,0
				C190,109.1,190,110.1,190.6,110.7z"/>
			<circle class="st1" cx="191.9" cy="151.6" r="1.9"/>
			<path class="st0" d="M119.7,119.7c0,0-7.4-24.1-15.8-15.8"/>
			<path class="st0" d="M123.6,116.7c0,0,7.9-15.6-0.3-15.4C115.1,101.4,123.6,116.7,123.6,116.7z"/>
			<path class="st0" d="M175.7,152.7c0,0-10.9-24,2.6-43.6c0,0-6.7,8.1,0.6,17.4C186.1,135.7,190.7,147.9,175.7,152.7z"/>
			<path class="st0" d="M159.6,116.6c-2.5-8.2,5.9-15,11.8-19.8c6.6-5.4,7.9-17.2,7.9-17.2"/>
			<path class="st0" d="M182.6,121.5c0,0,4.8,14.7,19.2,17.5"/>
			<circle class="st1" cx="186.7" cy="97.6" r="5.1"/>
			<path class="st0" d="M191,114.1c0,0-7,7.9,7.8,17.8"/>
		</g>
		<path class="st0" d="M164.3,97.4c-0.2-0.3-5.7-8.3-17.8-10.9c0,0-7.6,8.1-8.5,19.4"/>
		<path class="st0" d="M158.5,105.4c-0.4-0.4-2.5-8.1-10.7-14.7c0,0-2.1,9.8-1.3,17.6"/>
	</g>
	<g>
		<g>
			<path class="st0" d="M165.7,165.8"/>
			<path class="st0" d="M165.7,165.8"/>
			<path class="st0" d="M171.3,171.5"/>
			<path class="st0" d="M181.9,182.1"/>
			<path class="st0" d="M122.6,122.8"/>
			<path class="st0" d="M130.8,131"/>
			<path class="st0" d="M161.4,161.5"/>
			<path class="st0" d="M126.4,126.6"/>
			<path class="st1" d="M102.1,99.5c-0.7-0.7-1.9-0.7-2.7,0l0,0c0,0,0,0,0,0c0,0,0,0,0,0l0,0c-0.7,0.7-0.7,1.9,0,2.7
				c0.7,0.7,1.9,0.7,2.7,0l0,0c0,0,0,0,0,0c0,0,0,0,0,0l0,0C102.8,101.4,102.8,100.2,102.1,99.5z"/>
			<path class="st0" d="M103.9,104"/>
			<path class="st0" d="M119.7,119.7"/>
		</g>
	</g>
</g>
</svg>
